<?xml version="1.0" standalone="no"?>
<!DOCTYPE svg PUBLIC "-//W3C//DTD SVG 1.1//EN" "http://www.w3.org/Graphics/SVG/1.1/DTD/svg11.dtd" >
<svg xmlns="http://www.w3.org/2000/svg">
<metadata>Generated by IcoMoon</metadata>
<defs>
<font id="icomoon" horiz-adv-x="1024">
<font-face units-per-em="1024" ascent="960" descent="-64" />
<missing-glyph horiz-adv-x="1024" />
<glyph unicode="&#x20;" horiz-adv-x="512" d="" />
<glyph unicode="&#xe900;" glyph-name="add" d="M827.077 473.929h-267.815v267.815c0 26.104-21.157 47.262-47.262 47.262s-47.262-21.157-47.262-47.262v-267.815h-267.815c-26.104 0-47.262-21.157-47.262-47.262s21.157-47.262 47.262-47.262h267.815v-267.815c0-26.104 21.157-47.262 47.262-47.262s47.262 21.157 47.262 47.262v267.815h267.815c26.104 0 47.262 21.157 47.262 47.262s-21.157 47.262-47.262 47.262z" />
<glyph unicode="&#xe901;" glyph-name="addlist" d="M827.077 64.329c26.104 0 47.262 21.157 47.262 47.262v94.523l-141.785-141.785h94.523zM874.338 426.667c0 26.104-21.157 47.262-47.262 47.262h-267.815v267.815c0 26.104-21.157 47.262-47.262 47.262s-47.262-21.157-47.262-47.262v-267.815h-267.815c-26.104 0-47.262-21.157-47.262-47.262s21.157-47.262 47.262-47.262h267.815v-267.815c0-26.104 21.157-47.262 47.262-47.262s47.262 21.157 47.262 47.262v267.815h267.815c26.104 0 47.262 21.157 47.262 47.262z" />
<glyph unicode="&#xe902;" glyph-name="ArrowDown" d="M759.729 599.243l-247.627-247.627-250.872 250.848c-8.499 8.2-20.055 13.249-32.8 13.249-26.104 0-47.262-21.157-47.262-47.262 0-12.745 5.049-24.3 13.249-32.8l-0.016-0.008 283.585-283.553c8.602-8.917 20.653-14.47 34.013-14.47 0.039 0 0.071 0.008 0.102 0.008s0.071-0.008 0.102-0.008c13.359 0 25.411 5.553 34.013 14.462l0.016-0.016 283.451 283.687c8.137 8.499 13.147 20.007 13.147 32.697 0 26.104-21.165 47.262-47.262 47.262-14.336 0-27.175-6.396-35.84-16.471z" />
<glyph unicode="&#xe903;" glyph-name="ArrowLeft" d="M684.568 178.938l-247.619 247.627 250.841 250.872c8.208 8.499 13.257 20.055 13.257 32.8 0 26.104-21.157 47.262-47.262 47.262-12.745 0-24.3-5.057-32.8-13.249l-0.016 0.016-283.553-283.585c-8.909-8.602-14.462-20.653-14.462-34.013 0-0.032 0-0.071 0-0.102 0-0.039 0-0.071 0-0.102 0-13.359 5.553-25.411 14.462-34.013l-0.016-0.016 283.695-283.443c8.483-8.145 20-13.154 32.689-13.154 26.096 0 47.262 21.157 47.262 47.262 0 14.336-6.396 27.175-16.479 35.84z" />
<glyph unicode="&#xe904;" glyph-name="ArrowRight" d="M339.432 674.396l247.627-247.627-250.848-250.872c-8.208-8.499-13.257-20.055-13.257-32.8 0-26.104 21.157-47.262 47.262-47.262 12.745 0 24.3 5.057 32.8 13.249l0.016-0.016 283.553 283.585c8.909 8.602 14.462 20.653 14.462 34.013 0 0.032 0 0.071 0 0.102 0 0.039 0 0.071 0 0.102 0 13.359-5.553 25.411-14.462 34.013l0.016 0.016-283.687 283.443c-8.491 8.145-20.007 13.154-32.697 13.154-26.096 0-47.262-21.157-47.262-47.262 0-14.336 6.396-27.175 16.479-35.84z" />
<glyph unicode="&#xe905;" glyph-name="ArrowUP" d="M264.271 254.099l247.619 247.619 250.88-250.841c8.499-8.208 20.055-13.257 32.8-13.257 26.104 0 47.262 21.157 47.262 47.262 0 12.745-5.057 24.3-13.249 32.8l0.016 0.016-283.585 283.553c-8.602 8.909-20.653 14.462-34.013 14.462-0.032 0-0.071 0-0.102 0-0.039 0-0.071 0-0.102 0-13.359 0-25.411-5.553-34.013-14.462l-0.016 0.016-283.443-283.687c-8.145-8.491-13.154-20.007-13.154-32.697 0-26.096 21.157-47.262 47.262-47.262 14.336 0 27.175 6.396 35.84 16.479z" />
<glyph unicode="&#xe906;" glyph-name="Capture" d="M1016.092 68.306c0-30.468-25.096-55.138-56.005-55.138h-896.173c-30.917 0-56.005 24.678-56.005 55.138v606.468c0 30.436 25.088 55.107 56.005 55.107h196.041l28.018 55.138c0 0 25.064 55.146 55.981 55.146h336.1c30.909 0 55.973-55.146 55.973-55.146l28.026-55.138h196.025c30.909 0 56.005-24.678 56.005-55.107v-529.203c0-0.024 0.008-0.055 0.008-0.079v-77.186zM932.108 681.651h-195.836c-0.055-0.607-11.579-0.26-11.579 1.024l-33.43 67.899c0 0-20.086 34.446-44.835 34.446h-268.832c-24.749 0-44.835-34.446-44.835-34.446l-33.43-67.899c0-2.442-11.973-0.937-11.351-3.245h-196.072c-15.439 0-27.987-12.343-27.987-27.569v-555.977c0-15.202 12.54-27.569 27.987-27.569h840.192c15.447 0 27.995 12.367 27.995 27.569v49.617c0 0.024 0.008 0.055 0.008 0.079v508.503c0 15.234-12.548 27.569-27.995 27.569zM840.105 527.641c-23.875 0-43.205 19.157-43.205 42.78 0 23.615 19.33 42.772 43.205 42.772 23.891 0 43.213-19.149 43.213-42.772 0-23.615-19.322-42.78-43.213-42.78zM508.763 189.895c-115.586 0-209.29 92.278-209.29 206.037s93.704 205.997 209.29 205.997c115.554 0 209.258-92.239 209.258-205.997 0.008-113.766-93.696-206.037-209.258-206.037zM508.763 550.429c-86.693 0-156.995-69.199-156.995-154.498 0-85.331 70.294-154.529 156.995-154.529 86.693 0 156.971 69.199 156.971 154.529 0 85.299-70.27 154.498-156.971 154.498z" />
<glyph unicode="&#xe907;" glyph-name="Capture1" d="M1016.092 68.306v77.186c0 0.024-0.008 0.055-0.008 0.079v529.203c0 30.429-25.096 55.107-56.005 55.107h-196.025l-28.026 55.138c0 0-25.064 55.146-55.973 55.146h-336.1c-30.917 0-55.981-55.146-55.981-55.146l-28.018-55.138h-196.041c-30.917 0-56.005-24.671-56.005-55.107v-606.468c0-30.46 25.088-55.138 56.005-55.138h896.173c30.909 0 56.005 24.671 56.005 55.138zM840.105 527.641c-23.875 0-43.205 19.157-43.205 42.78 0 23.615 19.33 42.772 43.205 42.772 23.891 0 43.213-19.149 43.213-42.772s-19.322-42.78-43.213-42.78zM508.763 189.895c-115.586 0-209.29 92.278-209.29 206.037s93.704 205.997 209.29 205.997c115.554 0 209.258-92.239 209.258-205.997 0.008-113.766-93.696-206.037-209.258-206.037zM508.763 550.437c-86.693 0-156.995-69.199-156.995-154.506 0-85.331 70.294-154.529 156.995-154.529 86.693 0 156.971 69.199 156.971 154.529 0 85.299-70.27 154.506-156.971 154.506z" />
<glyph unicode="&#xe908;" glyph-name="control" d="M225.824 426.525c0.607 49.31 29.034 68.159 39.266 103.408 15.045 51.996-23.584 85.835-71.712 51.090s-96.421-69.152-144.872-103.211c-48.451-34.060-48.451-68.12 0-102.179s96.736-68.458 144.872-103.211c48.128-34.745 90.246-0.126 71.712 51.090-13.722 36.297-39.968 46.371-39.266 103.014zM163.95 347.945c-23.843 17.376-54.044 38.109-78.045 55.138-33.989 22.071-33.745 25.19 0 47.262 24.001 17.030 54.201 37.762 78.045 55.138s85.016 70.798 31.216-7.877c-18.716-28.9-15.328-54.114-15.612-78.769-0.323-28.318 1.347-50.586 15.612-70.892 54.304-67.946-7.373-17.361-31.216 0zM615.266 179.757c-36.289-13.722-46.371-39.96-103.014-39.266-49.31 0.607-68.159 29.034-103.408 39.266-51.996 15.045-85.835-23.584-51.090-71.712s69.152-96.421 103.211-144.872c34.060-48.451 68.12-48.451 102.179 0s68.458 96.744 103.211 144.872c34.753 48.128 0.126 90.238-51.090 71.712zM590.824 78.617c-17.376-23.843-38.109-54.044-55.138-78.045-22.071-33.989-25.19-33.745-47.262 0-17.030 24.001-37.762 54.201-55.138 78.045s-70.798 85.016 7.877 31.216c28.893-18.716 54.114-15.328 78.769-15.612 28.318-0.315 50.586 1.347 70.892 15.612 67.946 54.304 17.376-7.373 0-31.216zM563.145 889.822c-34.060 48.9-68.12 48.9-102.179 0s-68.466-97.642-103.211-146.211c-34.745-48.577-0.126-91.081 51.090-72.373 36.297 13.848 46.371 40.33 103.014 39.629 49.31-0.614 68.159-29.302 103.408-39.629 51.996-15.179 85.835 23.804 51.090 72.373-34.745 48.577-69.152 97.312-103.211 146.211zM582.947 741.799c-28.9 18.889-54.114 15.47-78.769 15.754-28.318 0.323-50.593-1.363-70.892-15.754-67.946-54.808-17.376 7.444 0 31.508s38.109 54.54 55.138 78.769c22.071 34.304 25.19 34.052 47.262 0 17.030-24.229 37.762-54.705 55.138-78.769s70.798-85.803-7.877-31.508zM512.055 308.56c65.252 0 118.154 52.901 118.154 118.154s-52.901 118.154-118.154 118.154c-65.252 0-118.154-52.901-118.154-118.154s52.901-118.154 118.154-118.154zM512.055 497.614c39.156 0 70.892-31.736 70.892-70.892s-31.736-70.892-70.892-70.892-70.892 31.736-70.892 70.892c0 39.156 31.736 70.892 70.892 70.892zM975.155 477.812c-48.9 34.060-97.642 68.458-146.211 103.211s-91.081 0.126-72.373-51.090c13.848-36.289 40.33-46.371 39.629-103.014-0.614-49.31-29.302-68.151-39.629-103.408-15.179-51.996 23.796-85.835 72.373-51.090s97.312 69.152 146.211 103.211c48.9 34.060 48.9 68.12 0 102.179zM937.409 403.091c-24.229-17.030-54.705-37.762-78.769-55.138s-85.803-70.798-31.508 7.877c18.889 28.9 15.47 54.114 15.754 78.769 0.323 28.318-1.363 50.586-15.754 70.892-54.808 67.946 7.444 17.376 31.508 0s54.54-38.109 78.769-55.138c34.304-22.071 34.052-25.19 0-47.262z" />
<glyph unicode="&#xe909;" glyph-name="search" d="M988.436 83.911c17.101-17.109 27.687-40.739 27.687-66.836 0-52.2-42.323-94.523-94.523-94.523-26.104 0-49.735 10.579-66.844 27.687v0l-277.016 277.016c-56.281-33.233-121.683-52.649-191.772-52.649-208.817 0-378.092 169.275-378.092 378.092s169.275 378.092 378.092 378.092c208.809 0 378.092-169.275 378.092-378.092 0-70.089-19.409-135.499-52.641-191.764l277.016-277.024zM385.969 836.267c-156.617 0-283.569-126.96-283.569-283.569s126.952-283.569 283.569-283.569 283.569 126.96 283.569 283.569c-0.008 156.617-126.96 283.569-283.569 283.569z" />
<glyph unicode="&#xe90a;" glyph-name="Exits" d="M768.213 237.298l-189.377 189.369 189.377 189.377c18.456 18.456 18.456 48.38 0 66.836s-48.38 18.456-66.836 0l-189.377-189.377-189.377 189.377c-18.456 18.456-48.38 18.456-66.836 0s-18.456-48.38 0-66.836l189.377-189.377-189.377-189.377c-18.456-18.456-18.456-48.38 0-66.836s48.38-18.456 66.836 0l189.377 189.377 189.377-189.377c18.456-18.456 48.38-18.456 66.836 0s18.456 48.38 0 66.844z" />
<glyph unicode="&#xe90b;" glyph-name="Focus" d="M512 930.79c-278.418 0-504.123-225.705-504.123-504.123s225.705-504.123 504.123-504.123 504.123 225.705 504.123 504.123-225.705 504.123-504.123 504.123zM929.39 592.082h-449.536l153.978 266.705c135.129-38.030 244.358-137.649 295.558-266.705zM638.566 430.905l-61.566-106.638h-129.371l-61.204 106.008 61.59 106.669h129.331l61.219-106.039zM577.15 870.886l-222.555-385.473-153.183 265.311c80.66 77.32 190.031 124.928 310.587 124.928 22.134 0 43.874-1.67 65.15-4.766zM162.32 708.165l221.641-383.898h-309.075c-7.68 32.91-11.871 67.151-11.871 102.4 0 106.614 37.234 204.485 99.304 281.498zM91.506 269.129h453.656l-158.027-273.715c-136.468 39.448-246.185 141.808-295.629 273.715zM443.557-17.135l226.84 392.901 155.743-269.761c-80.975-79.344-191.811-128.323-314.14-128.323-23.268 0-46.127 1.772-68.443 5.183zM864.863 149.226l-223.846 387.718h306.286c8.909-35.289 13.69-72.224 13.69-110.277-0.008-104.763-35.99-201.058-96.13-277.441z" />
<glyph unicode="&#xe90c;" glyph-name="FullScreen" d="M452.553 378.444c-9.295 9.295-24.355 9.295-33.65 0l-255.913-255.913v129.631c0 17.518-14.202 31.728-31.728 31.728s-31.728-14.202-31.728-31.728v-222.208c0-8.696 7.058-15.754 15.754-15.754h222.184c0.008 0 0.016 0 0.024 0 17.518 0 31.728 14.202 31.728 31.728s-14.202 31.728-31.728 31.728h-129.631l255.913 255.913c9.295 9.295 9.295 24.363 0 33.65l-11.225 11.225zM131.253 569.444c17.518 0 31.728 14.202 31.728 31.728v129.308l255.583-255.583c9.295-9.295 24.355-9.295 33.65 0l11.217 11.217c9.295 9.295 9.295 24.363 0 33.65l-255.898 255.913h129.969c17.518 0 31.728 14.202 31.728 31.728 0 17.518-14.202 31.728-31.728 31.728h-222.208c-8.696 0-15.754-7.050-15.754-15.754v-222.208c-0.016-17.526 14.194-31.728 31.712-31.728zM892.739 283.89c-17.518 0-31.728-14.202-31.728-31.728v-129.638l-255.913 255.921c-9.295 9.295-24.363 9.295-33.65 0l-11.217-11.217c-9.295-9.295-9.295-24.363 0-33.65l255.913-255.913h-129.638c-17.518 0-31.728-14.202-31.728-31.728s14.21-31.728 31.728-31.728c0.008 0 0.016 0 0.024 0h222.184c8.704 0 15.754 7.050 15.754 15.754v222.208c-0.008 17.518-14.21 31.72-31.728 31.72zM908.713 839.134h-222.208c-17.518 0-31.728-14.202-31.728-31.728s14.21-31.728 31.728-31.728h129.638l-255.59-255.583c-9.295-9.295-9.295-24.363 0-33.65l11.217-11.217c9.295-9.295 24.355-9.295 33.65 0l255.583 255.583v-129.631c0-17.526 14.202-31.728 31.728-31.728s31.728 14.202 31.728 31.728v222.208c0.008 8.688-7.050 15.746-15.746 15.746z" />
<glyph unicode="&#xe90d;" glyph-name="HD" d="M437.728 454.465h-138.311v122.919h-54.65v-298.48h54.65v129.827h138.311v-129.827h54.658v298.48h-54.658v-122.919zM512 930.79c-278.418 0-504.123-225.705-504.123-504.123s225.705-504.123 504.123-504.123c278.418 0 504.123 225.705 504.123 504.123s-225.705 504.123-504.123 504.123zM512-22.318c-247.966 0-448.985 201.019-448.985 448.985s201.019 448.985 448.985 448.985 448.985-201.019 448.985-448.985c0-247.966-201.019-448.985-448.985-448.985zM795.427 515.81c-8.255 11.744-18.479 21.937-30.673 30.562s-26.254 15.462-42.165 20.519c-5.356 1.788-11.232 3.308-17.621 4.576-6.396 1.26-13.013 2.339-19.85 3.237-6.845 0.89-13.871 1.56-21.079 2.009-7.215 0.449-14.312 0.67-21.307 0.67h-78.966v-298.48h70.94c20.078 0 38.148 1.189 54.209 3.568s30.413 5.947 43.055 10.705c15.171 5.648 28.294 12.902 39.377 21.748 11.075 8.846 20.259 19.070 27.546 30.673s12.713 24.426 16.282 38.479c3.568 14.052 5.356 29.113 5.356 45.174 0 16.951-2.119 32.681-6.357 47.183-4.246 14.501-10.492 27.632-18.747 39.377zM752.041 372.151c-8.184-15.021-20.228-26.474-36.139-34.351-17.999-8.775-42.984-13.162-74.957-13.162h-22.528v207.013h24.096c12.942 0 24.615-0.748 35.021-2.229 10.405-1.489 19.858-3.868 28.333-7.136 9.066-3.568 17.211-8.105 24.426-13.611s13.344-12.083 18.4-19.74c5.057-7.664 8.925-16.4 11.603-26.214s4.017-20.819 4.017-33.012c0-23.355-4.096-42.535-12.272-57.557z" />
<glyph unicode="&#xe90e;" glyph-name="List" d="M338.708 836.267h-299.323c-17.4 0-31.508-14.108-31.508-31.508v-299.323c0-17.4 14.108-31.508 31.508-31.508h299.323c17.4 0 31.508 14.108 31.508 31.508v299.323c0 17.4-14.108 31.508-31.508 31.508zM275.692 599.959c0-17.4-14.108-31.508-31.508-31.508h-110.277c-17.4 0-31.508 14.108-31.508 31.508v110.277c0 17.4 14.108 31.508 31.508 31.508h110.277c17.4 0 31.508-14.108 31.508-31.508v-110.277zM338.708 379.405h-299.323c-17.4 0-31.508-14.108-31.508-31.508v-299.323c0-17.4 14.108-31.508 31.508-31.508h299.323c17.4 0 31.508 14.108 31.508 31.508v299.323c0 17.4-14.108 31.508-31.508 31.508zM275.692 143.098c0-17.4-14.108-31.508-31.508-31.508h-110.277c-17.4 0-31.508 14.108-31.508 31.508v110.277c0 17.4 14.108 31.508 31.508 31.508h110.277c17.4 0 31.508-14.108 31.508-31.508v-110.277zM984.615 340.021h-488.369c-17.4 0-31.508-14.108-31.508-31.508v-31.508c0-17.4 14.108-31.508 31.508-31.508h488.369c17.4 0 31.508 14.108 31.508 31.508v31.508c0 17.4-14.108 31.508-31.508 31.508zM984.615 150.975h-488.369c-17.4 0-31.508-14.108-31.508-31.508v-31.508c0-17.4 14.108-31.508 31.508-31.508h488.369c17.4 0 31.508 14.108 31.508 31.508v31.508c0 17.4-14.108 31.508-31.508 31.508zM984.615 796.882h-488.369c-17.4 0-31.508-14.108-31.508-31.508v-31.508c0-17.4 14.108-31.508 31.508-31.508h488.369c17.4 0 31.508 14.108 31.508 31.508v31.508c0 17.4-14.108 31.508-31.508 31.508zM984.615 607.836h-488.369c-17.4 0-31.508-14.108-31.508-31.508v-31.508c0-17.4 14.108-31.508 31.508-31.508h488.369c17.4 0 31.508 14.108 31.508 31.508v31.508c0 17.4-14.108 31.508-31.508 31.508z" />
<glyph unicode="&#xe90f;" glyph-name="logo" horiz-adv-x="1487" d="M680.586 296.413c43.992 0 84.516 14.607 116.94 39.14 5.448-9.243 10.852-18.511 16.32-27.743 30.039-50.731 15.317-75.927-44.168-75.587s-118.967 0.34-178.451 0-74.205 24.856-44.166 75.587c5.495 9.279 10.926 18.593 16.401 27.883 32.457-24.615 73.046-39.28 117.124-39.28zM680.586 638.645c85.774 0 155.307-68.71 155.307-153.467s-69.533-153.467-155.307-153.467c-85.776 0-155.309 68.71-155.309 153.467s69.533 153.467 155.309 153.467zM680.586 371.613c63.471 0 114.927 50.845 114.927 113.565s-51.455 113.567-114.927 113.567c-63.473 0-114.928-50.845-114.928-113.567 0-62.719 51.455-113.565 114.928-113.565zM680.586 561.913c42.886 0 77.653-34.355 77.653-76.735 0-42.378-34.767-76.733-77.653-76.733-42.888 0-77.655 34.355-77.655 76.733 0 42.38 34.767 76.735 77.655 76.735zM680.586 446.812c21.442 0 38.826 17.177 38.826 38.366s-17.384 38.366-38.826 38.366c-21.444 0-38.828-17.177-38.828-38.366s17.384-38.366 38.828-38.366zM825.725 3.080c-628.535-279.286-757.667 192.504-757.667 192.504-234.418 402.241 211.691 554.707 211.691 554.707 196.882 324.171 518.734 131.637 518.734 131.637 371.942 99.984 440.434-207.165 440.434-207.165 142.897-51.793 173.933-231.010 70.186-332.435-92.239-90.176-238.611-112.094-361.234-106.753v253.85l44.234-37.357c0.16 0.292 0.35 0.563 0.528 0.841 2.33-3.543 6.316-5.887 10.852-5.887 4.542 0 8.527 2.348 10.857 5.896 0.236-0.367 0.472-0.735 0.674-1.126l12.869 10.868c19.381 16.369 19.381 42.906 0 59.275l-94.213 79.564v126.659c0 15.82-12.824 28.644-28.644 28.644h-37.373c-15.82 0-28.644-12.824-28.644-28.644v-46.716l-123.463 104.267c-19.383 16.369-50.807 16.369-70.188 0l-312.337-263.774c-19.381-16.369-19.381-42.906 0-59.275l12.869-10.868c0.202 0.39 0.438 0.759 0.674 1.126 2.33-3.548 6.316-5.896 10.857-5.896 4.536 0 8.522 2.344 10.852 5.887 0.178-0.278 0.369-0.548 0.528-0.841l48.966 41.354v-270.393c0-1.928 0.252-3.793 0.681-5.589-37.219-10.093-55.734-23.469-42.447-40.831 52.852-69.055 136.147-114.959 427.932-39.151 492.102 127.852 660.988-29.054 660.988-29.054s-208.743 85.948-639.198-105.322zM1486.714 68.452c-364.103 19.692-704.57-123.481-704.57-123.481 451.121 232.123 704.57 123.481 704.57 123.481z" />
<glyph unicode="&#xe910;" glyph-name="lris" d="M1015.524 450.298c-11.863 256.969-216.096 463.612-472.017 479.405v1.087h-55.138v-0.583c-259.608-11.981-467.905-220.302-479.894-479.909h-0.599v-55.138h1.079c15.801-255.929 222.444-460.178 479.413-472.040v-0.575h55.138v1.087c253.29 15.636 455.901 218.23 471.536 471.528h1.079v55.138h-0.599zM959.764 395.159c-15.47-222.83-193.441-400.794-416.256-416.256v132.687h-55.138v-133.262c-226.501 11.752-408.481 191.378-424.133 416.831h132.687v55.138h-133.285c11.886 229.155 195.584 412.83 424.732 424.716v-133.27h55.138v132.687c225.461-15.644 405.102-197.624 416.855-424.133h-133.285v-55.138h132.687zM543.508 576.329h-55.138v-126.031h-126.031v-55.138h126.031v-118.154h55.138v118.154h118.154v55.138h-118.154v126.031z" />
<glyph unicode="&#xe911;" glyph-name="PTZ" d="M665.773 114.906c-9.121 9.192-23.906 9.192-33.028 0l-121.108-122.108-121.108 122.108c-9.121 9.192-23.906 9.192-33.028 0l-5.506-5.553c-9.121-9.192-9.121-24.103 0-33.304l137.618-138.76c0 0 0 0 0-0.008l5.506-5.553c9.121-9.2 23.906-9.2 33.028 0l5.506 5.553c0 0 0 0 0 0.008l137.618 138.76c9.121 9.192 9.121 24.103 0 33.304l-5.498 5.553zM200.239 582.622l-5.553 5.569c-9.2 9.232-24.103 9.232-33.304 0l-144.313-144.817c-9.192-9.224-9.192-24.19 0-33.414l144.313-144.817c9.192-9.232 24.103-9.232 33.304 0l5.553 5.569c9.192 9.232 9.192 24.19 0 33.422l-122.108 122.533 122.108 122.533c9.192 9.232 9.192 24.19 0 33.422zM533.662 916.037c0 0.008 0 0.008 0 0l-5.506 5.553c-9.121 9.2-23.914 9.2-33.036 0.008l-5.506-5.553c0 0 0 0 0-0.008l-137.618-138.752c-9.121-9.2-9.121-24.103 0-33.304l5.506-5.553c9.121-9.192 23.906-9.192 33.028 0l121.108 122.108 121.108-122.108c9.121-9.192 23.906-9.192 33.028 0l5.506 5.553c9.121 9.192 9.121 24.103 0 33.304l-137.618 138.752zM507.715 292.759c73.696 0 133.443 59.951 133.443 133.908s-59.746 133.908-133.443 133.908c-73.696 0-133.443-59.951-133.443-133.908s59.746-133.908 133.443-133.908zM507.715 505.436c43.355 0 78.494-35.265 78.494-78.769s-35.139-78.769-78.494-78.769-78.494 35.265-78.494 78.769c0 43.504 35.139 78.769 78.494 78.769zM1006.931 443.374l-144.313 144.817c-9.192 9.232-24.103 9.232-33.304 0l-5.553-5.569c-9.192-9.232-9.192-24.19 0-33.422l122.108-122.533-122.108-122.533c-9.192-9.232-9.192-24.19 0-33.422l5.553-5.569c9.2-9.232 24.103-9.232 33.304 0l144.313 144.817c9.192 9.224 9.192 24.19 0 33.414z" />
<glyph unicode="&#xe912;" glyph-name="Record" d="M740.431 434.544h-693.169c-21.307 0-39.385-17.613-39.385-39.747v-385.245c0-22.126 17.298-39.747 38.605-39.747h693.949c21.307 0 39.385 17.621 39.385 39.747v385.245c0 22.134-18.078 39.747-39.385 39.747v0zM724.677 25.448h-661.662v353.453h661.662v-353.453zM968.216 358.492l-219.908-82.936c-12.958-3.86-7.877-21.331-7.877-39.747v-75.217c0-18.527-5.222-34.84 7.877-39.747l220.215-76.32c2.977-0.764 6.018-1.079 8.988-1.079 8.617 0 17.030 2.962 23.906 8.594 9.303 7.57 14.706 19.165 14.706 31.421v236.174c0 12.327-5.49 23.93-14.824 31.539-9.381 7.601-21.583 10.287-33.083 7.318v0zM960.985 104.95l-196.923 71.546v43.418l196.923 79.494v-194.458zM173.292 765.375c-82.653 0-149.662-67.009-149.662-149.662s67.009-149.662 149.662-149.662 149.662 67.009 149.662 149.662c0 82.653-67.009 149.662-149.662 149.662zM173.292 521.19c-52.208 0-94.523 42.323-94.523 94.523s42.315 94.523 94.523 94.523c52.2 0 94.523-42.323 94.523-94.523s-42.323-94.523-94.523-94.523zM582.892 883.529c-113.105 0-204.8-91.695-204.8-204.8s91.695-204.8 204.8-204.8 204.8 91.695 204.8 204.8c0 113.105-91.695 204.8-204.8 204.8zM582.892 529.067c-82.653 0-149.662 67.009-149.662 149.662s67.009 149.662 149.662 149.662 149.662-67.009 149.662-149.662-67.009-149.662-149.662-149.662z" />
<glyph unicode="&#xe913;" glyph-name="Record1" d="M740.431 434.544h-693.169c-21.307 0-39.385-17.613-39.385-39.747v-385.245c0-22.126 17.298-39.747 38.605-39.747h693.949c21.307 0 39.385 17.621 39.385 39.747v385.245c0 22.134-18.078 39.747-39.385 39.747v0zM968.216 358.492l-219.908-82.936c-12.958-3.86-7.877-21.331-7.877-39.747v-75.217c0-18.527-5.222-34.84 7.877-39.747l220.215-76.32c2.977-0.764 6.018-1.079 8.988-1.079 8.617 0 17.030 2.962 23.906 8.594 9.303 7.57 14.706 19.165 14.706 31.421v236.174c0 12.327-5.49 23.93-14.824 31.539-9.381 7.601-21.583 10.287-33.083 7.318v0zM960.985 104.95l-196.923 71.546v43.418l196.923 79.494v-194.458zM173.292 765.375c-82.653 0-149.662-67.009-149.662-149.662s67.009-149.662 149.662-149.662 149.662 67.009 149.662 149.662c0 82.653-67.009 149.662-149.662 149.662zM173.292 521.19c-52.2 0-94.523 42.323-94.523 94.523s42.323 94.523 94.523 94.523 94.523-42.323 94.523-94.523c0-52.2-42.323-94.523-94.523-94.523zM582.892 883.529c-113.105 0-204.8-91.695-204.8-204.8s91.695-204.8 204.8-204.8 204.8 91.695 204.8 204.8c0 113.105-91.695 204.8-204.8 204.8zM582.892 529.067c-82.653 0-149.662 67.009-149.662 149.662s67.009 149.662 149.662 149.662 149.662-67.009 149.662-149.662-67.009-149.662-149.662-149.662z" />
<glyph unicode="&#xe914;" glyph-name="reduction" d="M598.646 497.559h228.431v0.394c1.3-0.189 2.592-0.394 3.938-0.394 15.226 0 27.569 12.343 27.569 27.569s-12.343 27.569-27.569 27.569c-1.347 0-2.639-0.213-3.938-0.394v0.394h-153.994l278.764 278.764c9.846 9.846 11.28 24.371 3.206 32.445l-9.744 9.744c-8.074 8.074-22.599 6.64-32.445-3.206l-274.834-274.818v146.117h-0.394c0.189 1.3 0.394 2.592 0.394 3.938 0 15.226-12.343 27.569-27.569 27.569s-27.569-12.343-27.569-27.569c0-1.347 0.213-2.639 0.394-3.938h-0.394v-228.431c0-8.704 7.050-15.754 15.754-15.754zM425.354 355.775h-228.431v-0.394c-1.3 0.181-2.592 0.394-3.938 0.394-15.226 0-27.569-12.343-27.569-27.569s12.343-27.569 27.569-27.569c1.347 0 2.639 0.213 3.938 0.394v-0.394h153.994l-278.764-278.764c-9.846-9.846-11.28-24.371-3.206-32.445l9.744-9.744c8.074-8.074 22.599-6.64 32.445 3.206l274.834 274.818v-146.117h0.394c-0.189-1.3-0.394-2.592-0.394-3.938 0-15.226 12.343-27.569 27.569-27.569s27.569 12.343 27.569 27.569c0 1.347-0.213 2.639-0.394 3.938h0.394v228.431c0 8.704-7.050 15.754-15.754 15.754zM413.538 773.252c-15.226 0-27.569-12.343-27.569-27.569 0-1.347 0.213-2.639 0.394-3.938h-0.394v-146.117l-274.826 274.818c-9.846 9.846-24.371 11.28-32.445 3.206l-9.744-9.744c-8.074-8.074-6.64-22.599 3.198-32.445l278.764-278.764h-153.994v-0.394c-1.3 0.181-2.592 0.394-3.938 0.394-15.226 0-27.569-12.343-27.569-27.569s12.343-27.569 27.569-27.569c1.347 0 2.639 0.213 3.938 0.394v-0.394h228.431c8.704 0 15.754 7.050 15.754 15.754v228.431h-0.394c0.189 1.3 0.394 2.592 0.394 3.938 0 15.226-12.343 27.569-27.569 27.569zM951.84 29.749l-270.88 270.887h146.117c0 0 1.851-0.189 2.954-0.189 15.226 0 27.569 12.359 27.569 27.601s-12.343 27.601-27.569 27.601c-2.938 0-4.553 0.126-8.090 0.126h-198.018c-7.924 0-15.801 0-22.78 0h-2.497c-8.704 0-15.754-7.050-15.754-15.754v-223.311c-0.362-3.143-0.37-5.435-0.37-8.373 0-15.242 12.343-27.609 27.569-27.609s27.569 12.359 27.569 27.609c0 1.111 0.37 3.253 0.37 3.253v153.994l274.826-274.826c9.846-9.846 24.371-11.28 32.445-3.198l9.744 9.744c8.074 8.074 6.64 22.607-3.206 32.445z" />
<glyph unicode="&#xe915;" glyph-name="SD" d="M450.276 429.7c-8.925 6.246-19.149 11.114-30.673 14.612-11.524 3.489-23.615 6.577-36.25 9.255-8.034 1.631-15.612 3.419-22.756 5.356-7.136 1.93-13.462 4.498-18.96 7.696-5.506 3.198-9.854 7.247-13.052 12.162-3.198 4.907-4.797 11.154-4.797 18.739 0 13.084 4.868 22.898 14.612 29.444 9.736 6.546 23.607 9.815 41.606 9.815 12.493 0 25.836-1.378 40.038-4.128 14.202-2.757 29.034-7.176 44.505-13.273v46.844c-11.603 4.907-25.435 8.925-41.496 12.044s-32.051 4.687-47.963 4.687c-15.919 0-30.224-1.898-42.945-5.687-12.713-3.797-23.796-9.523-33.241-17.18-9.444-7.664-16.92-17.329-22.418-29.003-5.506-11.674-8.255-25.395-8.255-41.157 0-14.281 2.379-26.175 7.136-35.69s11.154-17.369 19.18-23.536c8.034-6.176 17.321-11.004 27.884-14.501 10.555-3.497 21.638-6.506 33.241-9.035 8.775-1.788 17.14-3.608 25.096-5.467s15.132-4.277 21.528-7.247c6.396-2.977 11.453-6.806 15.171-11.485 3.718-4.687 5.577-10.815 5.577-18.4 0-8.625-2.009-15.88-6.026-21.748-4.017-5.876-9.334-10.524-15.951-13.942-6.617-3.426-14.092-5.837-22.418-7.247-8.334-1.418-16.809-2.119-25.435-2.119-14.872 0-29.302 1.449-43.276 4.348-13.982 2.899-28.333 7.546-43.055 13.942v-46.175c10.405-5.797 23.457-10.303 39.148-13.493 15.691-3.198 31.642-4.797 47.852-4.797 18.59 0 35.69 1.859 51.31 5.577 15.612 3.718 28.885 9.405 39.818 17.069 10.933 7.656 19.369 17.361 25.316 29.113 5.947 11.744 8.925 25.655 8.925 41.716 0 15.612-2.607 28.444-7.806 38.479-5.191 10.027-12.256 18.172-21.173 24.411zM512 930.79c-278.418 0-504.123-225.705-504.123-504.123s225.705-504.123 504.123-504.123c278.418 0 504.123 225.705 504.123 504.123s-225.705 504.123-504.123 504.123zM512-22.318c-247.966 0-448.985 201.019-448.985 448.985s201.019 448.985 448.985 448.985 448.985-201.019 448.985-448.985c0-247.966-201.019-448.985-448.985-448.985zM771.616 515.81c-8.255 11.744-18.479 21.937-30.673 30.562s-26.246 15.462-42.165 20.519c-5.356 1.788-11.232 3.308-17.621 4.576-6.396 1.26-13.013 2.339-19.85 3.237-6.845 0.89-13.871 1.56-21.079 2.009-7.215 0.449-14.312 0.67-21.307 0.67h-78.974v-298.48h70.94c20.078 0 38.148 1.189 54.209 3.568s30.413 5.947 43.055 10.705c15.171 5.648 28.294 12.902 39.377 21.748 11.075 8.846 20.259 19.070 27.553 30.673 7.286 11.603 12.713 24.426 16.282 38.479s5.356 29.113 5.356 45.174c0 16.951-2.119 32.681-6.357 47.183-4.246 14.501-10.492 27.632-18.747 39.377zM728.229 372.151c-8.184-15.021-20.228-26.474-36.139-34.351-17.999-8.775-42.984-13.162-74.957-13.162h-22.528v207.013h24.088c12.942 0 24.615-0.748 35.021-2.229 10.405-1.489 19.858-3.868 28.333-7.136 9.066-3.568 17.211-8.105 24.426-13.611s13.344-12.083 18.4-19.74c5.057-7.664 8.925-16.4 11.603-26.214s4.017-20.819 4.017-33.012c0-23.355-4.088-42.535-12.264-57.557z" />
<glyph unicode="&#xe916;" glyph-name="sound_off" d="M867.698 426.667l99.454-265.964c4.939-16.14-4.151-33.217-20.299-38.148s-33.241 4.151-38.179 20.283l-73.555 196.71-73.563-196.71c-4.939-16.14-22.032-25.222-38.179-20.283-16.148 4.931-25.238 22.016-20.299 38.148l99.462 265.964-99.454 265.972c-4.939 16.14 4.151 33.217 20.299 38.148s33.241-4.151 38.179-20.283l73.563-196.71 73.555 196.71c4.939 16.14 22.032 25.222 38.179 20.283 16.148-4.931 25.238-22.016 20.299-38.148l-99.462-265.972zM605.822-31.628h-107.008l-244.586 244.421h-168.149c-16.888 0-30.578 13.682-30.578 30.555v366.639c0 16.872 13.69 30.555 30.578 30.555h168.157l244.586 244.421h107.008c16.888 0 30.57-13.674 30.57-30.555v-855.481c-0.008-16.872-13.698-30.555-30.578-30.555zM575.252 823.853h-61.149l-244.586-244.421h-152.867v-305.53h152.867l244.586-244.421h61.149v794.372z" />
<glyph unicode="&#xe917;" glyph-name="sound_on" d="M725.866 69.37v4.647c-16.872 0-30.555 13.729-30.555 30.665s13.682 30.665 30.555 30.665v0.733c108.284 51.712 183.32 162.217 183.32 290.588s-75.036 238.868-183.32 290.588v0.74c-16.872 0-30.555 13.729-30.555 30.665s13.682 30.665 30.555 30.665v4.647c142.895-55.446 244.421-194.316 244.421-357.297s-101.518-301.859-244.421-357.305zM603.656-33.322h-106.929l-244.429 245.327h-168.038c-16.872 0-30.555 13.729-30.555 30.665v367.994c0 16.935 13.682 30.665 30.555 30.665h168.038l244.421 245.327h106.937c16.872 0 30.555-13.729 30.555-30.665v-858.64c0-16.935-13.674-30.673-30.555-30.673zM573.109 825.318h-61.109l-244.421-245.319h-152.765v-306.656h152.765l244.421-245.327h61.109v797.302z" />
<glyph unicode="&#xe918;" glyph-name="zoom" d="M182.138 447.36c-15.226 0-27.569-12.343-27.569-27.569s12.343-27.569 27.569-27.569c15.226 0 27.569 12.343 27.569 27.569s-12.343 27.569-27.569 27.569zM245.153 746.683c-9.61 0-18.046-4.931-22.985-12.383-56.044-51.799-91.231-125.834-91.231-208.171 0-1.056 0.047-2.103 0.079-3.151-0.008-0.268-0.079-0.52-0.079-0.788 0-0.449 0.11-0.866 0.134-1.315 0.008-0.315 0.016-0.638 0.024-0.953h0.071c1.174-14.147 12.895-25.301 27.341-25.301 15.226 0 27.569 12.343 27.569 27.569 0 0.213-0.055 0.41-0.063 0.622l0.15 0.008c-0.016 1.111-0.087 2.198-0.087 3.308 0 69.096 30.72 130.977 79.195 172.867l-0.63 0.63c4.986 4.986 8.074 11.878 8.074 19.495 0.008 15.218-12.335 27.561-27.561 27.561zM978.912 113.74l-161.524 161.524c-18.558 18.558-42.094 29.074-66.308 31.634 41.149 63.047 65.158 138.311 65.158 219.223 0 221.869-179.854 401.723-401.723 401.723s-401.723-179.854-401.723-401.723 179.854-401.723 401.723-401.723c79.163 0 152.915 22.993 215.119 62.527 2.316-24.678 12.91-48.719 31.807-67.616l161.524-161.524c43.063-43.063 112.892-43.063 155.955 0 43.055 43.063 43.055 112.892-0.008 155.955zM414.507 179.544c-191.409 0-346.585 155.175-346.585 346.585 0 191.417 155.175 346.585 346.585 346.585s346.585-155.168 346.585-346.585c0-191.417-155.168-346.585-346.585-346.585zM939.922-3.224c-21.536-21.536-56.446-21.536-77.974 0l-161.524 161.524c-21.536 21.536-21.536 56.446 0 77.974 21.536 21.536 56.446 21.536 77.974 0l161.524-161.524c21.536-21.528 21.536-56.446 0-77.974z" />
<glyph unicode="&#xe919;" glyph-name="arrow-bottom" d="M512.047 119.467c15.691 0 29.759 6.814 39.534 17.605 0.016-0.016 0.032-0.032 0.047-0.047l449.276 505.895c-0.032 0.016-0.071 0.039-0.102 0.047 9.468 9.641 15.321 22.859 15.321 37.447 0 29.523-23.906 53.453-53.406 53.453-0.74 0-1.465-0.079-2.198-0.11 0.016 0.039 0.024 0.079 0.039 0.11h-900.096c0.008-0.016 0.008-0.032 0.008-0.039-29.113-0.441-52.594-24.166-52.594-53.413 0-13.249 4.844-25.356 12.824-34.698l451.765-508.692c0.016 0.016 0.032 0.032 0.047 0.047 9.775-10.791 23.836-17.605 39.534-17.605z" />
<glyph unicode="&#xe91a;" glyph-name="arrow-left" d="M819.2 426.714c0 15.691-6.814 29.759-17.605 39.534 0.016 0.016 0.032 0.032 0.047 0.047l-505.895 449.276c-0.016-0.032-0.039-0.071-0.047-0.102-9.649 9.468-22.859 15.321-37.447 15.321-29.523 0-53.453-23.906-53.453-53.406 0-0.74 0.079-1.465 0.11-2.198-0.032 0.016-0.071 0.024-0.11 0.039v-900.096c0.016 0.008 0.032 0.008 0.039 0.008 0.433-29.113 24.166-52.594 53.413-52.594 13.249 0 25.356 4.844 34.698 12.824l508.692 451.765c-0.016 0.016-0.032 0.032-0.047 0.047 10.791 9.775 17.605 23.836 17.605 39.534z" />
<glyph unicode="&#xe91b;" glyph-name="arrow-right" d="M204.8 426.62c0-15.691 6.814-29.759 17.605-39.534-0.016-0.016-0.032-0.032-0.047-0.047l505.895-449.276c0.016 0.032 0.039 0.071 0.047 0.102 9.641-9.468 22.859-15.321 37.447-15.321 29.523 0 53.453 23.906 53.453 53.406 0 0.74-0.079 1.465-0.11 2.198 0.039-0.016 0.079-0.024 0.11-0.039v900.096c-0.016-0.008-0.032-0.008-0.039-0.008-0.441 29.113-24.166 52.594-53.413 52.594-13.249 0-25.356-4.844-34.698-12.824l-508.692-451.765c0.016-0.016 0.032-0.032 0.047-0.047-10.791-9.775-17.605-23.836-17.605-39.534z" />
<glyph unicode="&#xe91c;" glyph-name="arrow-top" d="M511.953 733.867c-15.691 0-29.759-6.814-39.534-17.605-0.016 0.016-0.032 0.032-0.047 0.047l-449.276-505.895c0.032-0.016 0.071-0.039 0.102-0.047-9.468-9.649-15.321-22.859-15.321-37.447 0-29.523 23.906-53.453 53.406-53.453 0.74 0 1.465 0.079 2.198 0.11-0.016-0.039-0.024-0.079-0.039-0.11h900.096c-0.008 0.016-0.008 0.032-0.008 0.039 29.113 0.433 52.594 24.166 52.594 53.413 0 13.249-4.844 25.356-12.824 34.698l-451.765 508.692c-0.016-0.016-0.032-0.032-0.047-0.047-9.775 10.791-23.836 17.605-39.534 17.605z" />
<glyph unicode="&#xe91d;" glyph-name="bitrate" d="M1022.752 366.995h-54.728c-4.272-208.816-153.432-212.904-153.432-212.904h-493.552v175.88l-319.896-203.656 319.896-203.648v175.88h493.552c226.408 21.832 208.16 268.448 208.16 268.448zM266.208 15.235l-173.656 111.080 173.656 111.080v-222.16zM55.88 486.339c4.264 208.816 155.064 212.904 155.064 212.904h492.56v-175.88l319.248 203.648-319.248 203.656v-175.88h-492.56c-225.944-21.832-209.8-268.448-209.8-268.448h54.736zM758.232 838.099l173.312-111.080-173.312-111.080v222.16z" />
<glyph unicode="&#xe91e;" glyph-name="bitrate1" d="M55.88 486.339c4.264 208.816 155.064 212.904 155.064 212.904h492.56v-175.88l319.248 203.648-319.248 203.656v-175.88h-492.56c-225.944-21.832-209.8-268.448-209.8-268.448h54.736zM1022.752 366.995h-54.728c-4.272-208.816-153.432-212.904-153.432-212.904h-493.552v175.88l-319.896-203.656 319.896-203.648v175.88h493.552c226.408 21.832 208.16 268.448 208.16 268.448z" />
<glyph unicode="&#xe91f;" glyph-name="buoy" d="M701.046 930.79h-378.092c-52.2 0-94.523-42.323-94.523-94.523v-409.6l283.569-504.123 283.569 504.123v409.6c0 52.2-42.315 94.523-94.523 94.523z" />
<glyph unicode="&#xe920;" glyph-name="rewind" d="M819.2 891.405h-614.4c-87.008 0-157.538-70.53-157.538-157.538v-614.4c0-87.008 70.53-157.538 157.538-157.538h614.4c87.008 0 157.538 70.53 157.538 157.538v614.4c0 87.008-70.53 157.538-157.538 157.538zM921.6 127.344c0-60.904-49.373-110.277-110.277-110.277h-598.646c-60.904 0-110.277 49.373-110.277 110.277v598.646c0 60.904 49.373 110.277 110.277 110.277h598.646c60.904 0 110.277-49.373 110.277-110.277v-598.646zM758.508 663.053c-7.436 0-14.328-2.276-20.126-6.097-0.071 0.323-0.213 0.622-0.276 0.953l-207.258-134.806v107.205c-0.15-0.079-0.307-0.142-0.465-0.221-2.276 18.55-17.699 32.965-36.596 32.965-7.436 0-14.328-2.276-20.126-6.097-0.071 0.323-0.205 0.622-0.268 0.953l-305.475-198.68c0.087-0.047 0.158-0.11 0.244-0.165-11.012-6.522-18.503-18.503-18.503-32.374s7.491-25.852 18.503-32.374c-0.087-0.047-0.158-0.118-0.244-0.165l305.475-198.68c0.063 0.331 0.197 0.63 0.268 0.953 5.805-3.82 12.698-6.097 20.126-6.097 18.905 0 34.32 14.407 36.596 32.965 0.15-0.079 0.315-0.134 0.465-0.221v107.197l207.258-134.798c0.063 0.331 0.197 0.63 0.268 0.953 5.805-3.82 12.698-6.097 20.126-6.097 18.905 0 34.32 14.407 36.596 32.965 0.15-0.079 0.315-0.134 0.465-0.221v407.237c-0.15-0.079-0.307-0.142-0.465-0.221-2.269 18.55-17.684 32.965-36.588 32.965zM740.431 258.109l-38.109 26.096-183.343 119.264c0-0.016 0-0.024 0-0.039-4.466 3.088-9.87 4.931-15.722 4.931-15.226 0-27.569-12.256-27.569-27.38 0-0.11 0.032-0.213 0.032-0.323 0 0-0.008 0-0.008 0.008v-122.171l-38.873 26.23-167.274 108.78-52.578 33.185 55.194 34.887 164.832 107.205 38.699 26.12v-121.714c0.032 0.024 0.071 0.039 0.102 0.063-0.008-0.284-0.087-0.551-0.087-0.835 0-15.124 12.343-27.38 27.569-27.38 5.829 0 11.225 1.82 15.675 4.892l183.524 119.367 37.935 25.97v-337.156z" />
<glyph unicode="&#xe921;" glyph-name="device" d="M778.92 277.539c0 0.016 0.008 0.024 0.008 0.040-1.336-1.28-2.744-2.48-4.104-3.744-3.344-3.096-6.696-6.184-10.144-9.168-2.48-2.144-5.040-4.208-7.576-6.288-2.904-2.384-5.824-4.744-8.8-7.040-2.56-1.976-5.144-3.936-7.752-5.848-3.344-2.448-6.744-4.824-10.168-7.176-32.728-22.448-69.072-40.064-108.048-51.648h-0.088c-8.192-2.424-16.52-4.544-24.928-6.44-1.032-0.232-2.064-0.472-3.096-0.696-16.568-3.6-33.536-6.096-50.816-7.504-1.928-0.152-3.856-0.296-5.792-0.424-8.472-0.56-17-0.936-25.616-0.936s-17.144 0.376-25.616 0.936c-1.904 0.128-3.808 0.264-5.712 0.416-17.296 1.4-34.264 3.904-50.84 7.496-1.032 0.224-2.056 0.456-3.080 0.68-8.432 1.912-16.784 4.040-25 6.472h-0.152c-38.848 11.552-75.064 29.104-107.72 51.464-3.32 2.272-6.616 4.584-9.864 6.96-2.584 1.888-5.16 3.8-7.696 5.752-3.088 2.376-6.112 4.832-9.128 7.304-2.392 1.96-4.824 3.872-7.168 5.888-81.912 70.408-133.8 174.456-133.8 290.632 0 212.080 172.72 384 385.776 384s385.776-171.92 385.776-384c0-108.952-45.632-207.248-118.856-277.128zM512 890.667c-186.424 0-337.552-150.432-337.552-336s151.128-336 337.552-336 337.552 150.432 337.552 336-151.128 336-337.552 336zM512 346.667c-115.408 0-208.96 93.128-208.96 208s93.552 208 208.96 208 208.96-93.128 208.96-208-93.552-208-208.96-208zM512 714.667c-88.776 0-160.744-71.632-160.744-160s71.968-160 160.744-160 160.744 71.632 160.744 160-71.968 160-160.744 160zM503.96 626.667c-1.512 0-2.944 0.272-4.336 0.664 0.040-0.080 0.048-0.16 0.088-0.24-0.216-0.576-0.496-1.064-0.704-1.64-31.976-5.776-56.608-32.44-59.104-65.288-0.16 0.048-0.328 0.064-0.488 0.112-1.168-7.688-7.776-13.6-15.832-13.6-8.88 0-16.072 7.16-16.072 16 0 1.992 0.408 3.88 1.080 5.64 6.152 46.608 43.208 83.44 90.080 89.408 1.664 0.576 3.424 0.96 5.288 0.96 8.88 0 16.072-7.16 16.072-16 0.008-8.856-7.192-16.016-16.072-16.016zM222.168 222.651c15.336-13.28 31.6-25.52 48.688-36.624-0.032 0-0.056-0.008-0.088-0.016 69.376-45.072 152.2-71.344 241.232-71.344s171.856 26.272 241.232 71.344c-0.024 0-0.048 0.008-0.072 0.008 17.088 11.104 33.352 23.336 48.696 36.624 56.328-23.528 95.928-79.12 95.928-143.976v-8c0-86.16-69.84-156-156-156h-459.56c-86.16 0-156 69.84-156 156v8c0 64.872 39.608 120.464 95.944 143.984zM174.448 70.667c0-59.648 48.352-108 108-108h459.112c59.648 0 108 48.352 108 108v8c0 34.616-16.304 65.408-41.64 85.16-82.76-60.976-185.048-97.16-295.92-97.16s-213.16 36.184-295.912 97.16c-25.336-19.76-41.64-50.544-41.64-85.16v-8z" />
<glyph unicode="&#xe922;" glyph-name="device1" d="M778.92 277.539c0 0.016 0.008 0.024 0.008 0.040-1.336-1.28-2.744-2.48-4.104-3.744-3.344-3.096-6.696-6.184-10.144-9.168-2.48-2.144-5.040-4.208-7.576-6.288-2.904-2.384-5.824-4.744-8.8-7.040-2.56-1.976-5.144-3.936-7.752-5.848-3.344-2.448-6.744-4.824-10.168-7.176-62.096-42.592-137.256-67.648-218.384-67.648-81.008 0-156.072 24.984-218.12 67.464-3.32 2.272-6.616 4.584-9.864 6.96-2.584 1.888-5.16 3.8-7.696 5.752-3.088 2.376-6.112 4.832-9.128 7.304-2.392 1.96-4.824 3.872-7.168 5.888-81.912 70.408-133.8 174.456-133.8 290.632 0 212.080 172.72 384 385.776 384s385.776-171.92 385.776-384c0-108.952-45.632-207.248-118.856-277.128zM512 714.667c-88.776 0-160.744-71.632-160.744-160s71.968-160 160.744-160 160.744 71.632 160.744 160-71.968 160-160.744 160zM503.96 626.667c-1.512 0-2.944 0.272-4.336 0.664 0.040-0.080 0.048-0.16 0.088-0.24-0.216-0.576-0.496-1.064-0.704-1.64-31.976-5.776-56.608-32.44-59.104-65.288-0.16 0.048-0.328 0.064-0.488 0.112-1.168-7.688-7.776-13.6-15.832-13.6-8.88 0-16.072 7.16-16.072 16 0 1.992 0.408 3.88 1.080 5.64 6.152 46.608 43.208 83.44 90.080 89.408 1.664 0.576 3.424 0.96 5.288 0.96 8.88 0 16.072-7.16 16.072-16 0.008-8.856-7.192-16.016-16.072-16.016zM222.168 222.651c33.84-29.304 72.192-53.576 113.88-71.648 0.208-0.088 0.416-0.184 0.632-0.28 5.544-2.392 11.16-4.664 16.824-6.832 0.536-0.208 1.072-0.424 1.608-0.624 5.336-2.024 10.736-3.92 16.168-5.736 0.864-0.288 1.72-0.6 2.584-0.88 5.12-1.68 10.304-3.24 15.504-4.736 1.176-0.336 2.344-0.704 3.528-1.032 4.92-1.368 9.888-2.616 14.88-3.816 1.48-0.352 2.944-0.752 4.424-1.088 4.736-1.088 9.52-2.056 14.312-2.992 1.744-0.344 3.48-0.728 5.232-1.048 4.592-0.84 9.24-1.544 13.88-2.248 1.968-0.296 3.912-0.648 5.888-0.912 4.544-0.624 9.136-1.096 13.728-1.584 2.088-0.216 4.152-0.504 6.248-0.696 4.76-0.432 9.56-0.712 14.368-0.992 1.936-0.112 3.856-0.296 5.8-0.384 6.744-0.296 13.52-0.456 20.344-0.456s13.6 0.16 20.344 0.464c1.96 0.088 3.896 0.272 5.848 0.392 4.784 0.28 9.568 0.56 14.312 0.984 2.128 0.192 4.224 0.48 6.344 0.704 4.552 0.48 9.112 0.952 13.624 1.568 2.024 0.272 4.024 0.632 6.040 0.936 4.592 0.688 9.176 1.392 13.72 2.216 1.824 0.336 3.624 0.736 5.44 1.096 4.712 0.92 9.424 1.864 14.080 2.944 1.576 0.36 3.136 0.776 4.704 1.16 4.88 1.184 9.752 2.4 14.568 3.736 1.304 0.36 2.592 0.768 3.888 1.136 5.072 1.464 10.12 2.976 15.112 4.608 1.016 0.336 2.016 0.696 3.032 1.032 5.264 1.768 10.496 3.608 15.672 5.56 0.72 0.272 1.432 0.56 2.152 0.84 5.456 2.096 10.872 4.28 16.224 6.592 0.424 0.184 0.848 0.376 1.272 0.56 5.64 2.448 11.232 5.008 16.752 7.68 0.136 0.064 0.28 0.136 0.416 0.208 34.928 16.992 67.28 38.424 96.32 63.568 56.328-23.528 95.928-79.12 95.928-143.976v-8c0-86.16-69.84-156-156-156h-459.568c-86.16 0-156 69.84-156 156v8c0 64.864 39.608 120.456 95.944 143.976z" />
<glyph unicode="&#xe923;" glyph-name="edit" d="M968.862-46.673h-913.723c-26.104 0-47.262 21.157-47.262 47.262s21.157 47.262 47.262 47.262h913.723c26.104 0 47.262-21.157 47.262-47.262s-21.157-47.262-47.262-47.262zM777.184 653.869l-133.057 132.789 99.793 99.596c18.369 18.337 48.16 18.337 66.528 0l66.528-66.395c18.369-18.337 18.369-48.057 0-66.395l-99.793-99.596zM344.757 222.292l-133.057 132.789 399.171 398.383 133.057-132.789-399.171-398.383zM133.876 144.894l44.292 177.018 133.073-132.813-177.365-44.205z" />
<glyph unicode="&#xe924;" glyph-name="fast" d="M63.693 704.226c4.466 36.982 47.655 57.242 79.124 36.864 0.095 0.433 0.276 0.827 0.37 1.26l288.098-184.036v146.101c0.134-0.071 0.276-0.118 0.41-0.189 4.466 36.982 47.663 57.242 79.124 36.864 0.095 0.433 0.276 0.827 0.37 1.26l424.456-271.147c-0.063-0.039-0.126-0.087-0.189-0.126 33.69-19.456 33.69-69.364 0-88.82 0.071-0.039 0.126-0.087 0.189-0.126l-424.456-271.147c-0.087 0.433-0.268 0.827-0.37 1.252-31.46-20.378-74.657-0.118-79.124 36.864-0.134-0.071-0.276-0.118-0.41-0.189v146.109l-288.098-184.036c-0.087 0.433-0.268 0.827-0.37 1.252-31.46-20.378-74.657-0.118-79.124 36.864-0.134-0.071-0.276-0.118-0.41-0.189v555.504c0.134-0.071 0.276-0.118 0.41-0.189zM118.39 161.908l331.847 210.597c0.165-0.638 0.433-1.229 0.646-1.843 3.954 2.97 8.814 4.797 14.139 4.797 13.052 0 23.631-10.579 23.631-23.631 0-3.56-0.843-6.9-2.253-9.925v-179.988l416.051 264.751-416.059 264.751v-179.996c1.41-3.025 2.253-6.365 2.253-9.925 0-13.052-10.579-23.631-23.631-23.631-5.325 0-10.185 1.827-14.139 4.797-0.205-0.614-0.473-1.197-0.638-1.827l-331.847 210.59v-529.518z" />
<glyph unicode="&#xe925;" glyph-name="default" d="M850.416 310.215c-1.158-0.929-2.080-2.032-3.104-3.056l-0.37 0.37-171.331-165.337c-10.752-10.382-27.9-10.082-38.29 0.662l-47.151 48.75-1.804-1.52c-14.241 16.479-39.030 18.92-56.139 5.167-17.479-14.052-20.236-39.597-6.168-57.053 3.663-4.545 8.121-8.034 12.997-10.547l96.272-99.541c10.39-10.744 27.538-11.043 38.29-0.662l227.076 219.128c0.205 0.165 0.449 0.26 0.662 0.425 17.471 14.052 20.228 39.597 6.168 57.053s-39.629 20.212-57.108 6.16zM439.753 836.267h-312.359c-13.808 0-24.993-11.185-24.993-24.993v-312.359c0-13.8 11.185-24.986 24.993-24.986h312.359c13.8 0 24.986 11.185 24.986 24.986v312.359c0 13.808-11.185 24.993-24.986 24.993zM370.215 588.837c0-11.256-9.121-20.385-20.385-20.385h-132.521c-11.256 0-20.385 9.129-20.385 20.385v132.521c0 11.256 9.129 20.385 20.385 20.385h132.521c11.264 0 20.385-9.129 20.385-20.385v-132.521zM896.614 836.267h-312.359c-13.808 0-24.993-11.185-24.993-24.993v-312.359c0-13.8 11.185-24.986 24.993-24.986h312.359c13.8 0 24.986 11.185 24.986 24.986v312.359c0 13.808-11.185 24.993-24.986 24.993zM827.077 588.837c0-11.256-9.121-20.385-20.385-20.385h-132.521c-11.256 0-20.385 9.129-20.385 20.385v132.521c0 11.256 9.129 20.385 20.385 20.385h132.521c11.256 0 20.385-9.129 20.385-20.385v-132.521zM439.753 379.405h-312.359c-13.808 0-24.993-11.185-24.993-24.993v-312.359c0-13.8 11.185-24.986 24.993-24.986h312.359c13.8 0 24.986 11.185 24.986 24.986v312.359c0 13.808-11.185 24.993-24.986 24.993zM370.215 131.976c0-11.256-9.121-20.385-20.385-20.385h-132.521c-11.256 0-20.385 9.129-20.385 20.385v132.521c0 11.256 9.129 20.385 20.385 20.385h132.521c11.264 0 20.385-9.129 20.385-20.385v-132.521z" />
<glyph unicode="&#xe926;" glyph-name="lock" d="M800.448 523.619h-576.896c-53.112 0-96.152-43.040-96.152-96.152v-224.344c0-159.312 129.136-288.448 288.448-288.448h192.296c159.312 0 288.456 129.136 288.456 288.448v224.344c0 53.112-43.032 96.152-96.152 96.152zM845.328 203.115c0-130.776-106.416-237.168-237.2-237.168h-192.28c-130.776 0-237.168 106.392-237.168 237.168v224.352c0 24.736 20.128 44.872 44.872 44.872h576.888c24.76 0 44.896-20.128 44.896-44.872v-224.352zM274.84 497.483v153.248c0 130.488 106.168 236.656 236.672 236.656 130.48 0 236.648-106.168 236.648-236.656v-152.76c17.824-2.808 35.008-7.464 51.296-13.976v166.728c-0.008 159.024-128.928 287.944-287.952 287.944s-287.944-128.92-287.944-287.944v-167.88c16.248 6.76 33.456 11.592 51.28 14.64zM512 331.315c-35.4 0-64.104-28.704-64.104-64.104 0-19.504 10.672-56.4 21.376-85.64 8.736-23.784 19.688-42.528 42.728-42.528 25.040 0 33.992 18.56 42.752 42.224 10.832 29.296 21.344 66.384 21.344 85.952 0.008 35.4-28.696 64.096-64.096 64.096z" />
<glyph unicode="&#xe927;" glyph-name="mall" d="M1005.512 701.083c-3 7.256-10.136 12.376-18.48 12.376h-673.56l-25.256 122.064c-2.288 11.048-12.904 18.184-23.72 15.944l-7.832-1.624c-0.424-0.088-0.808-0.272-1.216-0.384h-220.416c-11.048 0-20-8.952-20-20v-8c0-11.048 8.952-20 20-20h211.208l116.768-564.336 6.456-32.048c-43.016-12.752-74.432-52.472-74.432-99.616 0-57.44 46.56-104 104-104s104 46.56 104 104c0 20.656-6.104 39.84-16.496 56h216.952c-10.368-16.176-16.456-35.36-16.456-56 0-57.44 46.56-104 104-104s104 46.56 104 104c0 54.728-42.304 99.488-95.984 103.592-1.296 0.264-2.64 0.408-4.016 0.408h-378.272l-0.848 4.2c0.184 1.928 0.168 3.896-0.248 5.896l-16.12 77.904h424.608c0.232-0.008 0.456 0 0.688 0h2.184c11.048 0 20 8.952 20 20v1.12l156.624 355.76c1.2 1.792 2.048 3.816 2.624 5.96l1.16 2.632c2.68 6.072 1.712 12.864-1.92 18.152zM791.032 161.459c30.928 0 56-25.072 56-56s-25.072-56-56-56c-30.928 0-56 25.072-56 56s25.072 56 56 56zM455.032 105.459c0-30.928-25.072-56-56-56s-56 25.072-56 56c0 30.928 25.072 56 56 56s56-25.072 56-56zM806.416 345.459h-411.384c-1.832 0-3.568-0.328-5.256-0.784l-66.376 320.784h623.896l-140.88-320z" />
<glyph unicode="&#xe928;" glyph-name="mall1" d="M1005.512 701.083c-3 7.256-10.136 12.376-18.48 12.376h-673.56l-25.256 122.064c-2.288 11.048-12.904 18.184-23.72 15.944l-7.832-1.624c-0.424-0.088-0.808-0.272-1.216-0.384h-220.416c-11.048 0-20-8.952-20-20v-8c0-11.048 8.952-20 20-20h211.208l116.768-564.336 6.456-32.048c-43.016-12.752-74.432-52.472-74.432-99.616 0-57.44 46.56-104 104-104s104 46.56 104 104c0 20.656-6.104 39.84-16.496 56h216.952c-10.368-16.176-16.456-35.36-16.456-56 0-57.44 46.56-104 104-104s104 46.56 104 104c0 54.728-42.304 99.488-95.984 103.592-1.296 0.264-2.64 0.408-4.016 0.408h-378.272l-0.848 4.2c0.184 1.928 0.168 3.896-0.248 5.896l-16.12 77.904h424.608c0.232-0.008 0.456 0 0.688 0h2.184c11.048 0 20 8.952 20 20v1.12l156.624 355.76c1.2 1.792 2.048 3.816 2.624 5.96l1.16 2.632c2.68 6.072 1.712 12.864-1.92 18.152zM791.032 161.459c30.928 0 56-25.072 56-56s-25.072-56-56-56c-30.928 0-56 25.072-56 56s25.072 56 56 56zM455.032 105.459c0-30.928-25.072-56-56-56s-56 25.072-56 56c0 30.928 25.072 56 56 56s56-25.072 56-56z" />
<glyph unicode="&#xe929;" glyph-name="maxview" d="M874.338 781.129h-724.677c-26.104 0-47.262-21.157-47.262-47.262v-614.4c0-26.104 21.157-47.262 47.262-47.262h724.677c26.104 0 47.262 21.157 47.262 47.262v614.4c0 26.104-21.157 47.262-47.262 47.262zM827.077 190.359c0-13.052-10.579-23.631-23.631-23.631h-582.892c-13.052 0-23.631 10.579-23.631 23.631v472.615c0 13.052 10.579 23.631 23.631 23.631h582.892c13.052 0 23.631-10.579 23.631-23.631v-472.615z" />
<glyph unicode="&#xe92a;" glyph-name="me" d="M544.784 890.539c13.384-1.096 26.952-8.864 39.024-15.776 5.96-3.416 11.592-6.64 17.576-9.36 3.2-1.456 6.248-3.168 10.112-5.336 12.472-7 29.56-16.592 62.416-22.936 13.112-2.464 15.264-41.16 16.176-57.68 0.296-5.288 0.568-10.288 1.032-14.848 2.904-28.576 3.392-96.704 0.024-111.632-6.392-28.312 2.168-46.632 10.464-57.016 6.576-8.224 15.256-14.288 25.064-17.712 1.712-13.128 1.976-33.832 0.424-51.984-3.224-2.512-11.064-7.144-17.512-10.952-5.776-3.408-12.272-7.256-19.608-11.816l-14.24-8.856-5.632-15.8c-19.016-53.4-62.104-88.064-62.344-88.264l-17.784-13.832-0.728-22.52c-0.064-2.104-1.64-51.096-1.952-64.256-4.352-39.776 4.088-133.128 170.912-156.904 124.672-18.112 158.52-52.504 183.24-77.624 3.36-3.416 6.832-6.944 10.4-10.352 6.544-10.336 13.992-44.064 18.96-82.424h-920.824c2.52 38.008 7.952 71.92 13.992 82.84 3.776 3.632 7.392 7.36 10.904 10.984 24.024 24.752 56.928 58.656 180.112 76.576 168.8 24.56 182.152 118.392 181.864 149.128l0.024 0.48-0.064 2.008c-0.928 30.216-1.256 71.704-1.256 72.12l-0.208 27.696-24.080 13.68c-0.48 0.272-48.472 28.648-66.288 78.632l-7.312 20.504-20.248 8.008c-9.176 3.632-14.48 6.344-17.376 8.040-0.096 0.704-0.192 1.408-0.272 2.048-0.456 3.416-1.016 7.616-1.88 12.344-2.584 18.136-3.448 39.784-2.448 53.44 7.712 3.448 15.88 8.96 22.912 17.752 6.888 8.616 17.272 26.792 12.632 54.4-1.56 39.576-0.776 109.92 1.544 132.832 1.864 18.376 16.192 64.056 40.584 68.072 12.6 2.072 18.488 2.352 23.68 2.592 11.152 0.528 20.424 1.392 38.296 7.76 12.44 4.44 20.328 10.176 25.032 13.6 0.024 0.016 0.048 0.032 0.064 0.048 1.488 0.184 4.192 0.408 8.624 0.408h3.936l72.032 11.888zM541.64 938.667l-72.808-12.016c-35.6 0-32.152-10.528-49.864-16.848-22.192-7.912-18.464-2.424-53.624-8.2-57.736-9.504-77.816-83.608-80.552-110.592-2.736-26.968-3.424-102.784-1.6-143.248 5.48-24.272-13.688-24.272-13.688-24.272-0.352 0.024-0.696 0.032-1.040 0.032-33.112 0.016-17.928-103.616-17.928-103.616 4.952-26.064-1.784-39.048 49.24-59.232 24.304-68.192 87.792-104.248 87.792-104.248s0.32-42.080 1.28-73.232c-0.224-4.168 8.528-80.92-140.76-102.64-158.488-23.048-188.84-73.576-218.72-101.72-29.872-28.16-28.856-164.168-28.856-164.168h1022.984c0 0-7.6 136.008-37.48 164.168-29.88 28.144-62.424 78.712-220.912 101.736-154.080 21.96-128.744 102.952-129.832 107.808 0.28 12.272 1.952 64.312 1.952 64.312s53.8 41.84 78.104 110.032c38.24 23.776 52.808 27.096 59.136 54.504 0 0 11.184 106.296-24.584 106.304-0.088 0-0.176 0-0.272 0 0 0-1.632-0.52-3.728-0.52-4.688 0-11.696 2.592-7.912 19.376 5.472 24.272 3.648 100.088 0.912 127.056-2.736 26.976 1.392 104.072-56.112 114.856-34.68 6.696-43.456 16.584-61.504 24.792-16.648 7.56-44.032 29.576-79.624 29.576v0z" />
<glyph unicode="&#xe92b;" glyph-name="me1" d="M468.824 926.651c-35.6 0-32.152-10.528-49.864-16.848-22.192-7.912-18.472-2.424-53.624-8.2-57.736-9.504-77.816-83.608-80.552-110.592-2.736-26.968-3.424-102.784-1.6-143.248 5.48-24.272-13.688-24.272-13.688-24.272-34.456 2.176-18.968-103.576-18.968-103.576 4.952-26.064-1.784-39.048 49.24-59.232 24.304-68.192 87.792-104.248 87.792-104.248s0.32-42.080 1.28-73.232c-5.192 2.552 17.728-79.592-140.76-102.64-158.48-23.016-188.832-73.584-218.712-101.728-29.872-28.16-28.856-164.168-28.856-164.168h1022.984c0 0-7.6 136.008-37.48 164.168-29.88 28.144-62.424 78.712-220.912 101.736-154.080 21.96-128.744 102.952-129.832 107.808 0.28 12.272 1.952 64.312 1.952 64.312s53.8 41.84 78.104 110.032c38.248 23.776 52.808 27.096 59.136 54.504 0 0 11.248 106.848-24.856 106.304 0 0-17.12-5.424-11.632 18.856 5.472 24.272 3.648 100.088 0.912 127.056-2.736 26.976 1.392 104.072-56.112 114.856-34.68 6.696-43.456 16.584-61.504 24.792-16.656 7.56-44.040 29.576-79.632 29.576l-72.816-12.016z" />
<glyph unicode="&#xe92c;" glyph-name="menu_qr" d="M56 850.667c0 17.672 14.328 32 32 32h232v56h-288c-17.672 0-32-14.328-32-32v-288h56v232zM56 2.667v232h-56v-288c0-17.672 14.328-32 32-32h288v56h-232c-17.672 0-32 14.328-32 32zM992 938.667h-288v-56h232c17.672 0 32-14.328 32-32v-232h56v288c0 17.672-14.328 32-32 32zM968 2.667c0-17.672-14.328-32-32-32h-232v-56h288c17.672 0 32 14.328 32 32v288h-56v-232zM1016 450.667h-1008c-4.416 0-8-3.584-8-8v-32c0-4.416 3.584-8 8-8h1008c4.416 0 8 3.584 8 8v32c0 4.416-3.584 8-8 8z" />
<glyph unicode="&#xe92d;" glyph-name="menu_scan" d="M512 938.667c-282.768 0-512-229.232-512-512s229.232-512 512-512 512 229.232 512 512-229.232 512-512 512zM512-29.333c-251.84 0-456 204.16-456 456s204.16 456 456 456 456-204.16 456-456c0-251.84-204.16-456-456-456zM564.48 726.059c-7.896 21.36-28.384 36.608-52.48 36.608s-44.584-15.248-52.48-36.608c-142.872-24.872-251.52-149.408-251.52-299.392 0-36.664 6.496-71.808 18.392-104.352-14.472-17.512-17.4-42.816-5.376-63.648 12.048-20.872 35.496-30.984 57.936-27.144 13.696-16.336 29.088-31.192 45.88-44.344l-25.36-38.688c-7-11.256-3.544-26.056 7.712-33.056l6.792-4.224c11.256-7 26.056-3.552 33.056 7.712l24.912 38c41.92-21.824 89.52-34.256 140.056-34.256 93.6 0 177.28 42.328 233.048 108.856 22.44-3.84 45.888 6.28 57.936 27.144 12.024 20.832 9.096 46.136-5.376 63.648 11.896 32.544 18.392 67.688 18.392 104.352 0 149.984-108.648 274.52-251.52 299.392zM745.112 341.875c-15.864-2.704-30.448-12.184-39.12-27.208-8.656-14.992-9.584-32.312-4.032-47.376-45.496-54.168-113.688-88.624-189.96-88.624-39.2 0-76.232 9.152-109.176 25.352l120.28 183.48c7 11.256 3.552 26.056-7.712 33.056l-6.792 4.224c-11.256 7-26.056 3.544-33.056-7.712l-119.84-182.8c-12.224 9.944-23.536 20.96-33.664 33.024 5.552 15.064 4.624 32.392-4.032 47.384-8.672 15.024-23.264 24.504-39.12 27.208-9.624 26.448-14.888 55-14.888 84.784 0 122.272 88.52 223.808 204.952 244.2 10.272-12.336 25.736-20.2 43.048-20.2s32.776 7.864 43.048 20.2c116.432-20.392 204.952-121.928 204.952-244.2 0-29.784-5.264-58.336-14.888-84.792z" />
<glyph unicode="&#xe92e;" glyph-name="delete" d="M102.4 774.339c0 28.806 22.922 52.153 51.2 52.153h256.008v52.145c0 28.806 22.914 52.153 51.192 52.153h102.408c28.278 0 51.2-23.347 51.2-52.153v-52.153h255.992c28.278 0 51.2-23.347 51.2-52.153v-52.145h-819.2v52.153zM870.4 617.887v-643.198c0-28.798-22.922-52.153-51.2-52.153h-614.4c-28.278 0-51.2 23.355-51.2 52.153v695.343h716.8v-52.145zM358.408 513.581c0 28.798-22.922 52.153-51.2 52.153s-51.2-23.355-51.2-52.153v-434.586c0-28.806 22.922-52.153 51.2-52.153s51.2 23.347 51.2 52.153v434.586zM563.208 513.581c0 28.798-22.922 52.153-51.208 52.153-28.278 0-51.2-23.355-51.2-52.153v-434.586c0-28.806 22.922-52.153 51.2-52.153s51.208 23.347 51.208 52.153v434.586zM768.008 513.581c0 28.798-22.922 52.153-51.2 52.153s-51.2-23.355-51.2-52.153v-434.586c0-28.806 22.922-52.153 51.2-52.153s51.2 23.347 51.2 52.153v434.586z" />
<glyph unicode="&#xe92f;" glyph-name="play" d="M794.608 723.816c-4.781 39.597-50.964 61.282-84.598 39.463-0.102 0.457-0.299 0.882-0.394 1.347l-453.845-290.28c0.071-0.039 0.134-0.095 0.205-0.134-36.021-20.834-36.021-74.256 0-95.090-0.071-0.039-0.134-0.095-0.205-0.134l453.845-290.28c0.095 0.465 0.291 0.882 0.394 1.347 33.642-21.811 79.825-0.126 84.598 39.463 0.142-0.071 0.299-0.126 0.433-0.197v594.7c-0.142-0.079-0.291-0.126-0.433-0.205zM740.187 136.67c-0.205-0.126-0.465-0.236-0.693-0.299l-455.664 290.076c-0.008 0.142-0.008 0.299 0 0.441l455.995 290.296c-0.181-0.118 0.095-0.307 0.362-0.496v-580.017z" />
<glyph unicode="&#xe930;" glyph-name="playback" d="M512 885.867c-120.432 0-229.944-46.32-312-121.992v101.192c0 13.256-10.744 24-24 24h-8c-13.256 0-24-10.744-24-24v-168c0-13.256 10.744-24 24-24h168c13.256 0 24 10.744 24 24v8c0 13.256-10.744 24-24 24h-95.992c72.184 64.632 167.472 104 271.992 104 225.336 0 408-182.664 408-408s-182.664-408-408-408-408 182.664-408 408h-2.76c0.168 1.184 0.36 2.368 0.36 3.6 0 13.92-11.28 25.2-25.2 25.2s-25.2-11.28-25.2-25.2c0-1.232 0.192-2.416 0.36-3.6h-0.36c0-254.496 206.304-460.8 460.8-460.8s460.8 206.304 460.8 460.8c0 254.496-206.304 460.8-460.8 460.8zM512 593.067h-8c-13.256 0-24-10.744-24-24v-151.896c-3.544-10.576 0.712-22.536 10.752-28.336l191.92-104.040c11.456-6.616 26.112-2.688 32.728 8.768l4.040 7c6.616 11.456 2.688 26.112-8.768 32.728l-174.672 94.696v141.080c0 13.256-10.744 24-24 24z" />
<glyph unicode="&#xe931;" glyph-name="playstart" d="M512 930.79c-278.418 0-504.123-225.705-504.123-504.123s225.705-504.123 504.123-504.123c278.418 0 504.123 225.705 504.123 504.123s-225.705 504.123-504.123 504.123zM512-27.044c-250.581 0-453.711 203.13-453.711 453.711s203.13 453.711 453.711 453.711c250.573 0 453.711-203.13 453.711-453.711s-203.138-453.711-453.711-453.711zM681.708 426.667c0 7.885 0 7.885 0 7.885-0.607 6.176-1.087 11.24-1.071 11.264s-17.636 11.847-39.259 26.27l-195.025 130.016c-21.63 14.423-39.322 4.947-39.322-21.047v-308.775c0-25.994 17.699-35.462 39.322-21.047l195.025 130.016c21.63 14.423 39.314 26.23 39.298 26.246s0.433 5.104 1.040 11.288c-0.008 0-0.008 0-0.008 7.885zM690.491 426.667c0-13.051-10.58-23.631-23.631-23.631s-23.631 10.58-23.631 23.631c0 13.051 10.58 23.631 23.631 23.631s23.631-10.58 23.631-23.631z" />
<glyph unicode="&#xe932;" glyph-name="pause" d="M512 930.79c-278.418 0-504.123-225.705-504.123-504.123s225.705-504.123 504.123-504.123c278.418 0 504.123 225.705 504.123 504.123s-225.705 504.123-504.123 504.123zM512-27.044c-250.581 0-453.711 203.13-453.711 453.711s203.13 453.711 453.711 453.711c250.573 0 453.711-203.13 453.711-453.711s-203.138-453.711-453.711-453.711zM622.285 304.575c0-15.226-12.343-27.569-27.569-27.569v0c-15.226 0-27.569 12.343-27.569 27.569v244.185c0 15.226 12.343 27.569 27.569 27.569v0c15.226 0 27.569-12.343 27.569-27.569v-244.185zM456.854 304.575c0-15.226-12.343-27.569-27.569-27.569v0c-15.226 0-27.569 12.343-27.569 27.569v244.185c0 15.226 12.343 27.569 27.569 27.569v0c15.226 0 27.569-12.343 27.569-27.569v-244.185z" />
<glyph unicode="&#xe933;" glyph-name="public" d="M512 898.667c-260.68 0-472-211.32-472-472s211.32-472 472-472 472 211.32 472 472c0 260.68-211.32 472-472 472zM512 2.667c-234.168 0-424 189.832-424 424s189.832 424 424 424 424-189.832 424-424c0-234.168-189.832-424-424-424zM705.12 493.691c-78.88 44.68-157.496 89.816-235.848 135.392-78.36 45.584-117.272 23.248-116.752-67.024v-270.792c-0.52-90.256 38.392-112.6 116.752-67.016 78.352 45.584 156.968 90.712 235.848 135.392 78.88 44.688 78.88 89.368 0 134.048zM648.496 379.107c-55.504-31.712-110.832-63.736-165.968-96.088-55.144-32.352-82.528-16.496-82.16 47.56s0.368 128.112 0 192.176c-0.368 64.056 27.016 79.912 82.152 47.56s110.464-64.376 165.968-96.088c55.512-31.704 55.512-63.416 0.008-95.12z" />
<glyph unicode="&#xe934;" glyph-name="pause1" d="M512 898.667c-260.68 0-472-211.32-472-472s211.32-472 472-472 472 211.32 472 472c0 260.68-211.32 472-472 472zM464 270.667c0-24.304-19.696-44-44-44h-8c-24.304 0-44 19.696-44 44v312c0 24.304 19.696 44 44 44h8c24.304 0 44-19.696 44-44v-312zM656 270.667c0-24.304-19.696-44-44-44h-8c-24.304 0-44 19.696-44 44v312c0 24.304 19.696 44 44 44h8c24.304 0 44-19.696 44-44v-312z" />
<glyph unicode="&#xe935;" glyph-name="QQ" d="M150.416 147.011l-8.768 15.44 16.264 11.392c20.768 14.536 49.408 9.52 63.968-11.208v0c14.56-20.728 9.536-49.32-11.232-63.864l-25.312-17.728 4.136 59.688-39.056 6.28zM874.576 147.075l8.768 15.44-16.264 11.392c-20.768 14.536-49.408 9.52-63.968-11.208v0c-14.56-20.728-9.536-49.32 11.232-63.864l25.312-17.728-4.136 59.688 39.056 6.28zM950.184 367.987l-0.008-0.016c-16.368 53.216-46.424 94.92-71.464 122.68 0.264 3.848 0.44 7.672 0.44 11.528 0 29.432-7.648 57.992-22.656 85.088v0.368c0.008 193.552-154.144 351.032-343.576 351.032-189.44 0-343.584-157.48-343.584-351.032v-1.248c-14.688-26.832-22.152-55.112-22.152-84.2 0-3.504 0.12-7.064 0.368-10.64-25.344-27.92-55.768-69.944-72.264-123.616-30.784-100.336-27.096-219.48 40.392-242.688 22.552-7.704 47.184-3.008 69.344 13.352 0.296-0.456 1.32-0.496 1.6-0.936s-0.168-1.272 0.128-1.72c-37.864-23.352-58.96-55.92-58.96-92.272 0-74.792 86.944-129.008 206.744-129.008 63.568 0 122.472 16.656 160.304 45.008 11.776 8.488 27.28 6.112 35.704 0 37.824-28.36 96.72-45 160.28-45 119.792 0 206.8 54.216 206.8 129.008 0 36.264-21.056 68.776-58.744 92.128 0.616 0.904 1.16 1.752 1.752 2.656 22.088-16.264 46.576-20.96 69.152-13.2 67.544 23.208 71.216 142.352 40.4 242.728zM895.272 167.339c-2.392-0.824-4.768-1.216-7.248-1.216-6.016 0-12.728 2.688-19.472 7.344l-6-8.712-37.624-18.784-4.528-46.96-1.84-3.16c16.432-10.848 34.48-28.16 34.48-52.192 0-47.368-71.248-84.48-162.2-84.48-53.48 0-103.368 13.48-133.456 36.088l-13.064 9.808c0 0-10.8 8.208-31.928 8.208-20.504 0-31.24-8.208-31.24-8.208l-13.064-9.784c-30.144-22.608-80.056-36.112-133.52-36.112-90.92 0-162.144 37.112-162.144 84.48 0 24.032 17.968 41.296 34.4 52.16l-10.888 10.848-0.928 35.712-33.912 23.184-5.52 7.168c-6.296-4.072-12.552-6.584-18.192-6.584-2.48 0-4.848 0.416-7.24 1.216-29.16 10.024-40.872 94.128-12.216 187.52 14.488 47.128 42.080 84.080 62.672 106.768l12.76 14.056-1.32 18.936c-0.176 2.544-0.264 5.064-0.264 7.544 0 21.464 5.616 42.616 16.688 62.856l5.464 9.976v11.368c0 170.248 134.12 307.752 298.992 307.752 164.856 0 298.992-137.504 298.992-306.512v-11.488l5.576-10.424c11.32-20.456 17.072-41.84 17.072-63.544 0-2.84-0.128-5.672-0.328-8.504l-1.288-18.808 12.632-14.008c20.336-22.544 47.6-59.216 61.968-105.96 28.688-93.376 16.952-177.488-12.272-187.552z" />
<glyph unicode="&#xe936;" glyph-name="refresh" d="M976 570.667h-208c-26.512 0-48 21.488-48 48s21.488 48 48 48h82.672c-75.168 106.32-198.504 176-338.672 176-229.752 0-416-186.248-416-416 0-26.512-21.488-48-48-48-26.504 0-48 21.488-48 48v0c0 282.768 229.232 512 512 512 171.728 0 323.264-84.776 416-214.584v86.584c0 26.512 21.488 48 48 48s48-21.488 48-48v-192c0-26.512-21.488-48-48-48zM48 282.667h208c26.512 0 48-21.488 48-48s-21.488-48-48-48h-83.32c75.216-106.44 199.032-176 339.32-176 229.752 0 416 186.248 416 416 0 26.512 21.488 48 48 48s48-21.488 48-48v0c0-282.768-229.232-512-512-512-171.936 0-323.384 85.144-416 215.272v-87.272c0-26.512-21.488-48-48-48-26.504 0-48 21.496-48 48v192c0 26.512 21.488 48 48 48z" />
<glyph unicode="&#xe937;" glyph-name="Screen" d="M445.046 840.205h-385.969c-26.104 0-47.262-21.157-47.262-47.262v-291.446c0-26.104 21.157-47.262 47.262-47.262h385.969c26.104 0 47.262 21.157 47.262 47.262v291.446c0 26.104-21.157 47.262-47.262 47.262zM437.169 540.882c0-17.4-14.108-31.508-31.508-31.508h-307.2c-17.4 0-31.508 14.108-31.508 31.508v212.677c0 17.4 14.108 31.508 31.508 31.508h307.2c17.4 0 31.508-14.108 31.508-31.508v-212.677zM972.8 840.205h-385.969c-26.104 0-47.262-21.157-47.262-47.262v-291.446c0-26.104 21.157-47.262 47.262-47.262h385.969c26.104 0 47.262 21.157 47.262 47.262v291.446c0 26.104-21.157 47.262-47.262 47.262zM964.923 540.882c0-17.4-14.108-31.508-31.508-31.508h-307.2c-17.4 0-31.508 14.108-31.508 31.508v212.677c0 17.4 14.108 31.508 31.508 31.508h307.2c17.4 0 31.508-14.108 31.508-31.508v-212.677zM445.046 406.975h-385.969c-26.104 0-47.262-21.157-47.262-47.262v-291.446c0-26.104 21.157-47.262 47.262-47.262h385.969c26.104 0 47.262 21.157 47.262 47.262v291.446c0 26.104-21.157 47.262-47.262 47.262zM437.169 107.652c0-17.4-14.108-31.508-31.508-31.508h-307.2c-17.4 0-31.508 14.108-31.508 31.508v212.677c0 17.4 14.108 31.508 31.508 31.508h307.2c17.4 0 31.508-14.108 31.508-31.508v-212.677zM972.8 406.975h-385.969c-26.104 0-47.262-21.157-47.262-47.262v-291.446c0-26.104 21.157-47.262 47.262-47.262h385.969c26.104 0 47.262 21.157 47.262 47.262v291.446c0 26.104-21.157 47.262-47.262 47.262zM964.923 107.652c0-17.4-14.108-31.508-31.508-31.508h-307.2c-17.4 0-31.508 14.108-31.508 31.508v212.677c0 17.4 14.108 31.508 31.508 31.508h307.2c17.4 0 31.508-14.108 31.508-31.508v-212.677z" />
<glyph unicode="&#xe938;" glyph-name="Screen1" d="M968.862 804.759h-913.723c-26.104 0-47.262-21.157-47.262-47.262v-661.662c0-26.104 21.157-47.262 47.262-47.262h913.723c26.104 0 47.262 21.157 47.262 47.262v661.662c0 26.104-21.157 47.262-47.262 47.262zM960.985 135.221c0-17.4-14.108-31.508-31.508-31.508h-834.954c-17.4 0-31.508 14.108-31.508 31.508v582.892c0 17.4 14.108 31.508 31.508 31.508h834.954c17.4 0 31.508-14.108 31.508-31.508v-582.892z" />
<glyph unicode="&#xe939;" glyph-name="connect_fail" d="M422.258 511.801c9.232 9.232 9.232 24.19 0 33.422l-38.991 38.983 38.991 38.991c9.232 9.232 9.232 24.19 0 33.422l-5.577 5.569c-9.232 9.232-24.19 9.232-33.422 0l-38.991-38.991-44.56 44.56c-9.232 9.232-24.19 9.232-33.422 0l-5.553-5.569c-9.232-9.232-9.232-24.19 0-33.422l44.552-44.56-44.56-44.56c-9.232-9.232-9.232-24.19 0-33.422l5.569-5.569c9.232-9.232 24.19-9.232 33.422 0l44.56 44.56 38.991-38.991c9.232-9.232 24.19-9.232 33.422 0l5.569 5.577zM760.966 656.61l-5.577 5.577c-9.232 9.232-24.19 9.232-33.422 0l-38.991-38.991-44.56 44.56c-9.232 9.232-24.19 9.232-33.422 0l-5.553-5.569c-9.232-9.232-9.232-24.19 0-33.422l44.552-44.56-44.56-44.56c-9.232-9.232-9.232-24.19 0-33.422l5.569-5.569c9.232-9.232 24.19-9.232 33.422 0l44.56 44.56 38.991-38.991c9.232-9.232 24.19-9.232 33.422 0l5.569 5.569c9.232 9.232 9.232 24.19 0 33.422l-38.991 38.991 38.991 38.991c9.224 9.224 9.224 24.19 0 33.414zM512 930.79c-278.418 0-504.123-225.705-504.123-504.123s225.705-504.123 504.123-504.123 504.123 225.705 504.123 504.123-225.705 504.123-504.123 504.123zM512-22.318c-247.966 0-448.985 201.019-448.985 448.985s201.019 448.985 448.985 448.985 448.985-201.019 448.985-448.985c0-247.966-201.019-448.985-448.985-448.985zM598.646 237.621h-173.292c-13.052 0-23.631-10.579-23.631-23.631v-7.877c0-13.052 10.579-23.631 23.631-23.631h173.292c13.052 0 23.631 10.579 23.631 23.631v7.877c0 13.052-10.579 23.631-23.631 23.631z" />
<glyph unicode="&#xe93a;" glyph-name="Athome" d="M1000.992 452.7c0.055 0.055 0.095 0.118 0.15 0.165l-451.316 447.362c-0.032-0.024-0.063-0.047-0.087-0.079-9.87 9.208-23.119 14.887-37.738 14.887s-27.869-5.679-37.738-14.88c-0.032 0.024-0.063 0.047-0.087 0.079 0 0-450.332-446.543-450.284-446.574-9.893-9.886-16.014-23.481-16.014-38.502 0-30.184 24.686-54.658 55.138-54.658 0.071 0 69.624 0 69.624 0 14.549-0.756 26.136-12.579 26.136-27.183v-341.89c0.024 0 0.055 0 0.079 0 0.819-29.475 25.127-53.13 55.060-53.13h598.646c30.452 0 55.138 24.474 55.138 54.658 0 0.197 0.024 340.614 0.039 340.614 0.221 14.809 12.288 26.75 27.246 26.908 0 0.008 65.89 0.032 66.001 0.032 30.452 0 55.138 24.474 55.138 54.658 0 14.549-5.774 27.735-15.132 37.534zM905.263 415.624c-4.041 0-7.83-0.197-11.39-0.559l0.544 0.551c-45.214-0.473-81.156-36.155-81.81-81.25l0.929 0.922c-0.614-4.978-0.945-10.413-0.945-16.337l-0.032-326.002v0.488h-598.646v339.873c0 43.851-34.446 79.982-78.423 82.259l-1.434 0.079-70.207-0.008c18.148 18.054 295.479 293.069 445.85 442.171l2.166 2.024 6.751-6.294 441.502-437.87-54.855-0.047zM748.3 134.677c-0.181 98.729-60.92 183.201-147.039 218.372 22.717 22.796 36.769 54.233 36.769 88.962 0 69.608-56.43 126.031-126.031 126.031s-126.031-56.422-126.031-126.031c0-34.729 14.052-66.166 36.777-88.962-86.118-35.17-146.857-119.643-147.039-218.372 0-0.039-0.008-0.071-0.008-0.11 0-0.024 0.008-0.039 0.008-0.063 0-0.087-0.008-0.173-0.008-0.26h0.032c0.181-15.069 12.422-27.238 27.538-27.238s27.357 12.17 27.538 27.238h0.024c0 99.903 81.274 181.169 181.169 181.169 99.903 0 181.169-81.266 181.169-181.169h0.032c0.181-15.069 12.422-27.238 27.538-27.238s27.357 12.17 27.538 27.238h0.032c0 0.087-0.008 0.173-0.008 0.26 0 0.024 0.008 0.039 0.008 0.063 0 0.032-0.008 0.071-0.008 0.11zM512 371.119c-39.085 0-70.892 31.799-70.892 70.892s31.807 70.892 70.892 70.892c39.093 0 70.892-31.807 70.892-70.892s-31.799-70.892-70.892-70.892z" />
<glyph unicode="&#xe93b;" glyph-name="select" d="M1006.899 812.14v0l-241.562-249.895c-5.703-5.9-13.58-9.547-22.276-9.547-8.704 0-16.581 3.647-22.276 9.547v0l-136.539 141.241c-5.703 5.9-9.232 14.045-9.232 23.048 0 18.007 14.1 32.595 31.508 32.595 8.704 0 16.581-3.647 22.276-9.547v0l114.263-118.193 219.278 226.84c5.703 5.9 13.572 9.547 22.276 9.547 17.408 0 31.508-14.596 31.508-32.595 0-8.995-3.521-17.148-9.224-23.040zM1006.899 245.002v0l-241.562-249.895c-5.695-5.9-13.572-9.547-22.276-9.547s-16.581 3.647-22.276 9.547v0l-136.539 141.241c-5.703 5.9-9.232 14.045-9.232 23.048 0 18.007 14.1 32.595 31.508 32.595 8.704 0 16.581-3.647 22.276-9.547v0l114.263-118.201 219.278 226.84c5.703 5.908 13.572 9.555 22.276 9.555 17.408 0 31.508-14.596 31.508-32.595 0-8.995-3.521-17.148-9.224-23.040zM354.462 930.79h-252.062c-52.192 0-94.523-42.323-94.523-94.523v-252.062c0-52.2 42.331-94.523 94.523-94.523h252.062c52.208 0 94.523 42.323 94.523 94.523v252.062c0 52.2-42.315 94.523-94.523 94.523zM385.969 584.205c0-17.4-14.1-31.508-31.508-31.508h-252.062c-17.4 0-31.508 14.108-31.508 31.508v252.062c0 17.408 14.108 31.508 31.508 31.508h252.062c17.408 0 31.508-14.1 31.508-31.508v-252.062zM354.462 363.652h-252.062c-52.192 0-94.523-42.323-94.523-94.523v-252.062c0-52.2 42.331-94.523 94.523-94.523h252.062c52.208 0 94.523 42.323 94.523 94.523v252.062c0 52.2-42.315 94.523-94.523 94.523zM385.969 17.067c0-17.4-14.1-31.508-31.508-31.508h-252.062c-17.4 0-31.508 14.108-31.508 31.508v252.062c0 17.408 14.108 31.508 31.508 31.508h252.062c17.408 0 31.508-14.1 31.508-31.508v-252.062z" />
<glyph unicode="&#xe93c;" glyph-name="share" d="M848 586.667c97.048 0 176 78.968 176 176s-78.952 176-176 176c-97.048 0-176-78.968-176-176 0-8.592 0.832-16.968 2.032-25.248 0 0-96.696-37.184-191.232-73.544-90.392-34.76-178.816-68.768-178.816-68.768-32.128 34.12-77.544 55.56-127.984 55.56-97.048 0-176-78.968-176-176s78.952-176 176-176c37.824 0 72.832 12.128 101.544 32.496l250.688-167.12c-10.312-22.376-16.232-47.16-16.232-73.376 0-97.032 78.952-176 176-176s176 78.968 176 176-78.952 176-176 176c-47.816 0-91.16-19.216-122.904-50.28l-242.248 161.504c18.376 27.808 29.152 61.024 29.152 96.776 0 23.128-4.592 45.152-12.752 65.408l355.312 136.656c30.176-53.656 87.6-90.064 153.44-90.064zM688 202.667c61.752 0 112-50.248 112-112s-50.248-112-112-112-112 50.248-112 112c0 61.752 50.248 112 112 112zM848 874.667c61.752 0 112-50.248 112-112s-50.248-112-112-112c-61.752 0-112 50.248-112 112s50.248 112 112 112z" />
<glyph unicode="&#xe93d;" glyph-name="share1" d="M848 586.667c97.048 0 176 78.968 176 176s-78.952 176-176 176c-97.048 0-176-78.968-176-176 0-8.592 0.832-16.968 2.032-25.248 0 0-96.696-37.184-191.232-73.544-90.392-34.76-178.816-68.768-178.816-68.768-32.128 34.12-77.544 55.56-127.984 55.56-97.048 0-176-78.968-176-176s78.952-176 176-176c37.824 0 72.832 12.128 101.544 32.496l250.688-167.12c-10.312-22.376-16.232-47.16-16.232-73.376 0-97.032 78.952-176 176-176s176 78.968 176 176-78.952 176-176 176c-47.816 0-91.16-19.216-122.904-50.28l-242.248 161.504c18.376 27.808 29.152 61.024 29.152 96.776 0 23.128-4.592 45.152-12.752 65.408l355.312 136.656c30.176-53.656 87.6-90.064 153.44-90.064zM176 586.667c61.752 0 112-50.248 112-112s-50.248-112-112-112-112 50.248-112 112c0 61.752 50.248 112 112 112z" />
<glyph unicode="&#xe93e;" glyph-name="slock" d="M800 523.619h-1v127.104c0 159.024-128.72 287.944-287.496 287.944s-287.496-128.92-287.496-287.944v-127.104h-0.008c-53.032 0-96-43.040-96-96.152v-224.344c0-159.32 128.936-288.456 288-288.456h192c159.064 0 288 129.136 288 288.456v224.344c0 53.12-42.968 96.152-96 96.152zM275.208 650.731c0 130.488 106 236.656 236.304 236.656 130.272 0 236.272-106.168 236.272-236.656v-127.112h-472.576v127.112zM844.808 203.115c0-130.776-106.248-237.168-236.824-237.168h-191.984c-130.576 0-236.8 106.392-236.8 237.168v224.352c0 24.736 20.104 44.872 44.8 44.872h575.992c24.728 0 44.824-20.128 44.824-44.872v-224.352z" />
<glyph unicode="&#xe93f;" glyph-name="slow" d="M960.307 149.108c-4.466-36.982-47.655-57.242-79.124-36.864-0.095-0.433-0.276-0.827-0.37-1.26l-288.098 184.036v-146.101c-0.134 0.071-0.276 0.118-0.41 0.189-4.466-36.982-47.655-57.242-79.124-36.864-0.095-0.433-0.276-0.827-0.37-1.26l-424.448 271.147c0.063 0.039 0.126 0.087 0.189 0.126-33.69 19.456-33.69 69.364 0 88.82-0.071 0.039-0.126 0.087-0.189 0.126l424.464 271.147c0.087-0.433 0.268-0.827 0.37-1.252 31.46 20.378 74.657 0.118 79.124-36.864 0.134 0.071 0.276 0.118 0.41 0.189v-146.101l288.098 184.036c0.087-0.433 0.268-0.827 0.37-1.252 31.46 20.378 74.657 0.118 79.124-36.864 0.134 0.071 0.276 0.118 0.41 0.189v-555.496c-0.15 0.055-0.291 0.102-0.425 0.173zM905.61 691.426l-331.839-210.597c-0.165 0.638-0.433 1.229-0.646 1.843-3.954-2.97-8.814-4.797-14.139-4.797-13.052 0-23.631 10.579-23.631 23.631 0 3.56 0.843 6.9 2.253 9.925v179.988l-416.059-264.751 416.059-264.751v180.003c-1.41 3.025-2.253 6.365-2.253 9.925 0 13.052 10.579 23.631 23.631 23.631 5.325 0 10.185-1.827 14.139-4.797 0.205 0.614 0.473 1.197 0.638 1.827l331.847-210.597v529.518z" />
<glyph unicode="&#xe940;" glyph-name="sunlock" d="M800 523.619h-576c-53.032 0-96-43.040-96-96.152v-224.344c0-159.32 128.936-288.456 288-288.456h192c159.064 0 288 129.136 288 288.456v224.344c0 53.12-42.968 96.152-96 96.152zM844.808 203.115c0-130.776-106.248-237.168-236.824-237.168h-191.984c-130.576 0-236.8 106.392-236.8 237.168v224.352c0 24.736 20.104 44.872 44.8 44.872h575.992c24.72 0 44.824-20.128 44.824-44.872v-224.352zM224.008 523.619v-40.776c16.224 6.76 33.4 11.592 51.2 14.64v26.136h-51.2zM511.504 938.667c-158.776 0-287.496-128.92-287.496-287.944v-30.72h51.2v30.728c0 130.488 106 236.656 236.304 236.656 130.272 0 236.272-106.168 236.272-236.656v-152.76c17.792-2.808 34.952-7.456 51.216-13.976v166.728c0 159.024-128.72 287.944-287.496 287.944zM275.176 620.083c0-14.13-11.454-25.584-25.584-25.584s-25.584 11.454-25.584 25.584c0 14.13 11.454 25.584 25.584 25.584s25.584-11.454 25.584-25.584z" />
<glyph unicode="&#xe941;" glyph-name="user" d="M386.336 136.667c0-11.784-9.552-21.336-21.336-21.336s-21.336 9.552-21.336 21.336c0 11.784 9.552 21.336 21.336 21.336s21.336-9.552 21.336-21.336zM680.504 136.667c0-11.784-9.552-21.336-21.336-21.336s-21.336 9.552-21.336 21.336c0 11.784 9.552 21.336 21.336 21.336s21.336-9.552 21.336-21.336zM990.424 31.915c-6.336 4.248-121.832 80.808-293.6 118.344 63.016 80.72 103.464 189.216 120.656 261.44 23.848 100.096 14.6 295.936-80.512 417.968-55.616 71.312-133.408 109-224.968 109-91.568 0-169.36-37.688-224.952-109-95.12-122.032-104.36-317.872-80.528-417.968 17.192-72.216 57.64-180.72 120.656-261.44-171.768-37.536-287.264-114.096-293.6-118.344-23.224-15.656-33.584-44.808-25.48-71.784 8.064-26.992 32.712-45.464 60.608-45.464h886.592c27.896 0 52.536 18.472 60.608 45.472 8.096 26.968-2.264 56.12-25.48 71.776zM975.040-27.565c-2.712-9.064-10.648-15.104-19.752-15.104h-886.584c-8.976 0-17.096 6.184-19.736 15.024-2.72 9.064 0.768 19 8.472 24.184 4.528 3.040 114.816 76.184 278.848 112.024l32.080 7.008c-3.696 3.84-6.032 9.008-6.032 14.76 0 10.72 8.040 19.216 18.336 20.728l-19.856 25.44c-57.736 73.96-96.128 175.104-112.784 245.088-21.232 89.16-12.824 272.176 72.664 381.856 47.208 60.552 113.368 92.56 191.304 92.56s144.080-32.008 191.312-92.576c85.48-109.656 93.896-292.68 72.664-381.848-16.648-69.96-55.024-171.080-112.792-245.088l-21.128-27.056c9.6-2.080 16.944-10.224 16.944-20.448 0-5.024-2-9.448-4.904-13.096l33.616-7.344c164.040-35.832 274.312-108.976 278.936-112.080 7.608-5.112 11.104-15.032 8.392-24.032z" />
<glyph unicode="&#xe942;" glyph-name="users" d="M452.872 348.539c0-3.243-2.629-5.872-5.872-5.872s-5.872 2.629-5.872 5.872c0 3.243 2.629 5.872 5.872 5.872s5.872-2.629 5.872-5.872zM582.936 348.355c0-3.243-2.629-5.872-5.872-5.872s-5.872 2.629-5.872 5.872c0 3.243 2.629 5.872 5.872 5.872s5.872-2.629 5.872-5.872zM452.872 348.355c0-3.243-2.629-5.872-5.872-5.872s-5.872 2.629-5.872 5.872c0 3.243 2.629 5.872 5.872 5.872s5.872-2.629 5.872-5.872zM716.584 251.403l-122.2 96.24c48.168 31.608 80.528 90.080 80.528 157.024 0 100.52-72.896 182-162.824 182s-162.824-81.48-162.824-182c0-66.904 32.32-125.336 80.432-156.96l-122.28-96.304c-29.2-22.992-39.416-55.2-30.888-84.736h470.944c8.528 29.528-1.688 61.736-30.888 84.736zM734.2 182.667h-444.4c-1.592 20.584 8.192 40.944 27.52 56.168l134.048 105.576c-1.544 1.056-2.616 2.744-2.616 4.76 0 1.584 0.64 3.008 1.664 4.064l-11.928 7.84c-45.168 29.688-73.216 84.712-73.216 143.592 0 91.528 65.864 166 146.824 166s146.824-74.472 146.824-166c0-58.936-28.096-113.976-73.312-143.648l-11.592-7.608c1.792-1.008 3.056-2.848 3.056-5.056 0-2.192-1.256-4.032-3.040-5.040l132.664-104.48c19.312-15.224 29.104-35.584 27.504-56.168zM512 938.667c-282.768 0-512-229.232-512-512s229.232-512 512-512c282.768 0 512 229.232 512 512s-229.232 512-512 512zM512-69.333c-273.936 0-496 222.064-496 496s222.064 496 496 496c273.936 0 496-222.064 496-496s-222.064-496-496-496z" />
<glyph unicode="&#xe943;" glyph-name="view" d="M485.518 225.018h-372.382l186.187 231.479 101.699-126.432 32.201 40.409-133.9 166.471-291.446-362.338h582.892l-40.55 50.412zM614.4 678.729l-401.723-504.123h803.446l-401.723 504.123zM614.4 597.84l297.11-372.823h-594.196l297.086 372.823z" />
<glyph unicode="&#xe944;" glyph-name="voff" d="M247.168 297.603l-0.856 0.752c-6.88 5.992-14.352 10.48-21.904 13.664-7.688 6.544-17.52 10.648-28.408 10.648h-100v208h100c10.792 0 20.552 4.040 28.208 10.488 4.992 2.768 9.912 5.936 14.552 9.928l263.576 226.632c-14.336-82.704-23.752-167.072-27.888-252.84l104.072 104.072c6.184 59.76 14.968 118.752 26.392 176.8l-0.232 0.232c2.112 5.16 3.32 10.776 3.32 16.688v72c0 24.304-19.696 44-44 44h-8c-15.848 0-29.624-8.456-37.368-21.024-1.976-1.432-3.984-2.736-5.888-4.368l-333.328-286.608h-135.416c-24.304 0-44-19.696-44-44v-312c0-24.304 19.696-44 44-44h132.232l70.936 70.936zM935.312 714.219l-69.304-69.304c39.232-63.456 61.992-138.16 61.992-218.248 0-114.968-46.648-219.040-122.032-294.336l0.808-0.984c-13.624-8.472-22.776-23.456-22.776-40.68 0-26.512 21.488-48 48-48 13.92 0 26.352 6.016 35.12 15.488l0.056-0.072c96.624 93.128 156.824 223.784 156.824 368.584 0 106.688-32.808 205.6-88.688 287.552zM569.688 348.595l-90.6-90.6c5.128-61.68 12.936-122.592 23.352-182.624l-110.112 95.864-68.048-68.048 187.384-163.128c2.504-2.176 5.104-4.048 7.744-5.816 7.896-11.792 21.328-19.576 36.592-19.576h8c24.304 0 44 19.696 44 44v72c0 4.992-1.016 9.712-2.544 14.184-19.592 98.768-31.664 200.232-35.768 303.744zM939.096 848.107l-5.656 5.656c-17.184 17.184-45.040 17.184-62.224 0l-786.304-786.304c-17.184-17.184-17.184-45.040 0-62.224l5.656-5.656c17.184-17.184 45.040-17.184 62.224 0l786.304 786.304c17.176 17.176 17.176 45.040 0 62.224z" />
<glyph unicode="&#xe945;" glyph-name="von" d="M564 938.667h-8c-15.848 0-29.624-8.456-37.368-21.024-1.976-1.432-3.984-2.736-5.888-4.368l-333.328-286.608h-135.416c-24.304 0-44-19.696-44-44v-312c0-24.304 19.696-44 44-44h138.56c0.256-0.232 0.456-0.496 0.72-0.72l328.392-285.88c2.504-2.176 5.104-4.048 7.744-5.816 7.888-11.8 21.32-19.584 36.584-19.584h8c24.304 0 44 19.696 44 44v72c0 4.992-1.016 9.712-2.544 14.184-24.496 123.488-37.456 251.128-37.456 381.816 0 129.72 12.776 256.44 36.92 379.080l-0.232 0.232c2.104 5.16 3.312 10.776 3.312 16.688v72c0 24.304-19.696 44-44 44zM246.312 298.347c-6.88 5.992-14.352 10.48-21.904 13.664-7.688 6.552-17.52 10.656-28.408 10.656h-100v208h100c10.792 0 20.552 4.040 28.208 10.488 4.992 2.768 9.912 5.936 14.552 9.928l263.576 226.632c-19.776-114.080-30.336-231.312-30.336-351.048 0-119.832 10.624-237.136 30.448-351.296l-256.136 222.976zM867.272 794.995c-1.008 1.096-2.056 2.12-3.16 3.12-0.512 0.488-0.992 1-1.504 1.48l-0.128-0.128c-8.312 6.896-18.84 11.2-30.48 11.2-26.512 0-48-21.488-48-48 0-11.84 4.448-22.536 11.552-30.904l-0.424-0.424c81.704-75.96 132.872-184.32 132.872-304.672 0-114.968-46.648-219.040-122.032-294.336l0.808-0.984c-13.624-8.472-22.776-23.456-22.776-40.68 0-26.512 21.488-48 48-48 13.92 0 26.352 6.016 35.12 15.488l0.056-0.072c96.624 93.128 156.824 223.784 156.824 368.584 0 144.704-60.208 275.208-156.728 368.328zM724.128 666.163l-0.384-0.44c-7.848 5.584-17.384 8.944-27.744 8.944-26.512 0-48-21.488-48-48 0-12.768 5.072-24.304 13.208-32.904l-0.168-0.2c45.896-41.016 74.96-100.488 74.96-166.896 0-63.664-26.688-120.992-69.336-161.776l0.216-0.304c-11.4-8.776-18.88-22.416-18.88-37.92 0-26.512 21.488-48 48-48 9.928 0 19.152 3.016 26.808 8.184l0.368-0.504c66.68 58.64 108.824 144.536 108.824 240.32 0 95.328-41.736 180.872-107.872 239.496z" />
<glyph unicode="&#xe946;" glyph-name="WeChat" d="M286.504 695.635c-37.208 0-67.376-30.136-67.376-67.304 0-37.176 30.168-67.304 67.376-67.304s67.376 30.136 67.376 67.304c0 37.168-30.168 67.304-67.376 67.304zM286.504 599.475c-15.92 0-28.872 12.936-28.872 28.848 0 15.904 12.952 28.848 28.872 28.848s28.872-12.936 28.872-28.848c0-15.904-12.952-28.848-28.872-28.848zM564.056 695.635c-37.208 0-67.376-30.136-67.376-67.304 0-37.176 30.168-67.304 67.376-67.304s67.376 30.136 67.376 67.304c-0.008 37.168-30.168 67.304-67.376 67.304zM564.056 599.475c-15.92 0-28.872 12.936-28.872 28.848 0 15.904 12.952 28.848 28.872 28.848s28.872-12.936 28.872-28.848c0-15.904-12.952-28.848-28.872-28.848zM841.376 373.875c21.264 0 38.496-17.224 38.496-38.456 0-21.24-17.24-38.464-38.496-38.464-21.264 0-38.496 17.224-38.496 38.464 0 21.232 17.24 38.456 38.496 38.456zM664.48 373.875c21.264 0 38.496-17.224 38.496-38.456 0-21.24-17.232-38.464-38.496-38.464s-38.496 17.224-38.496 38.464c-0.008 21.232 17.232 38.456 38.496 38.456zM1023.984 277.635c0 125.952-116.248 228.056-259.648 228.056s-259.64-102.104-259.64-228.056c0-125.952 116.248-228.056 259.64-228.056 4.36 0 8.688 0.104 12.992 0.288 42.976-32.592 98.248-53.016 158.888-55.184-25.296 21.824-45.456 48.192-58.928 77.552 86.816 36.904 146.696 115.008 146.696 205.4zM862.208 107.611l-36.416-15.472c0 0 16.728-36.448 16.84-36.696-15.016 6.896-29.136 15.288-42.032 25.048l-11.072 8.392-13.872-0.6c-3.76-0.168-7.52-0.248-11.32-0.248-121.936 0.008-221.136 85.064-221.136 189.608s99.2 189.6 221.144 189.6 221.144-85.048 221.144-189.6c0-72.544-47.24-137.688-123.28-170.032zM485.36 184.515c-25.168-4.744-51.216-7.384-77.992-7.384-6.296 0-12.56 0.152-18.768 0.416l-13.912 0.584-11.064-8.432c-37.256-28.432-80.704-49.88-127.248-63.304 10.952 16.616 20.568 34.008 28.816 52.112l16.336 35.816-36.216 15.496c-127.568 54.52-206.816 165.208-206.816 288.848 0 177.296 165.472 321.52 368.872 321.52 185.776 0 339.496-120.44 364.808-276.384 13.456-0.312 26.648-1.488 39.6-3.352-23.464 179.096-195.44 318.2-404.4 318.2-224.992 0-407.376-161.176-407.376-359.992 0-142.688 93.952-265.976 230.168-324.224-21.144-46.352-52.776-87.968-92.464-122.424 95.136 3.424 181.856 35.664 249.288 87.112 6.752-0.296 13.544-0.456 20.384-0.456 33.112 0 65.128 3.872 95.944 10.456-6.992 11.296-12.84 23.176-17.96 35.392z" />
<glyph unicode="&#xe947;" glyph-name="join" d="M984.82 501.608c19.212-18.456 31.303-45.19 31.303-74.941 0-29.743-12.091-56.47-31.303-74.933h0.008l-315.077-302.474c-16.746-16.093-38.92-25.891-63.228-25.891-52.208 0-94.523 45.143-94.523 100.825 0 29.751 12.075 56.485 31.295 74.941h-0.008l131.986 126.708h-572.873c-52.208 0-94.523 45.151-94.523 100.825 0 55.682 42.315 100.825 94.523 100.825v0h572.873l-131.978 126.716c-19.22 18.448-31.295 45.19-31.295 74.941 0 55.674 42.315 100.817 94.523 100.817 24.308 0 46.482-9.799 63.228-25.884v0l315.069-302.474z" />
<glyph unicode="&#xe948;" glyph-name="AwayFromHome" d="M1000.992 452.7c0.055 0.055 0.095 0.118 0.15 0.165l-451.316 447.362c-0.032-0.024-0.063-0.047-0.087-0.079-9.87 9.208-23.119 14.887-37.738 14.887s-27.869-5.679-37.738-14.88c-0.032 0.024-0.063 0.047-0.087 0.079 0 0-450.332-446.543-450.284-446.574-9.893-9.886-16.014-23.481-16.014-38.502 0-30.184 24.686-54.658 55.138-54.658 0.071 0 69.616 0 69.616 0 14.549-0.756 26.136-12.579 26.136-27.183v-341.89c0.024 0 0.055 0 0.079 0 0.819-29.475 25.127-53.13 55.060-53.13 0.417 0 598.433 0 598.646 0 30.452 0 55.138 24.474 55.138 54.658 0 0.197 0.024 340.614 0.039 340.614 0.221 14.809 12.288 26.75 27.246 26.908 0 0.008 65.89 0.032 66.001 0.032 30.452 0 55.138 24.474 55.138 54.658 0.008 14.549-5.766 27.735-15.124 37.534zM905.263 415.624c-4.041 0-7.83-0.197-11.39-0.559l0.544 0.551c-45.214-0.473-81.156-36.155-81.81-81.25l0.929 0.922c-0.614-4.978-0.945-10.413-0.945-16.337l-0.032-326.002v0.488h-598.646v339.873c0 43.843-34.446 79.982-78.423 82.259l-1.434 0.079-70.207-0.008c18.148 18.054 295.479 293.069 445.85 442.171l2.166 2.024 6.743-6.294 441.502-437.87-54.847-0.047z" />
<glyph unicode="&#xe949;" glyph-name="buoy_right" d="M5.908 609.805v-378.092c0-52.2 42.323-94.523 94.523-94.523h409.6l504.123 283.569-504.123 283.569h-409.6c-52.2 0-94.523-42.315-94.523-94.523z" />
<glyph unicode="&#xe94a;" glyph-name="six_split_mode" d="M968.862 836.267h-913.723c-26.104 0-47.262-21.157-47.262-47.262v-724.677c0-26.104 21.157-47.262 47.262-47.262h913.723c26.104 0 47.262 21.157 47.262 47.262v724.677c0 26.104-21.157 47.262-47.262 47.262zM929.477 781.129c17.4 0 31.508-14.108 31.508-31.508v-165.415h-259.938v196.923h228.431zM322.954 72.205h-228.431c-17.4 0-31.508 14.108-31.508 31.508v173.292h259.938v-204.8zM645.908 72.205h-267.815v204.8h267.815v-204.8zM645.908 332.144h-582.892v417.477c0 17.4 14.108 31.508 31.508 31.508h551.385v-448.985zM960.985 103.713c0-17.4-14.108-31.508-31.508-31.508h-228.431v204.8h259.938v-173.292zM701.046 332.144v196.923h259.938v-196.923h-259.938z" />
<glyph unicode="&#xe94b;" glyph-name="four_split_mode" d="M968.862 836.267h-913.723c-26.104 0-47.262-21.157-47.262-47.262v-724.677c0-26.104 21.157-47.262 47.262-47.262h913.723c26.104 0 47.262 21.157 47.262 47.262v724.677c0 26.104-21.157 47.262-47.262 47.262zM63.015 749.621c0 17.4 14.108 31.508 31.508 31.508h393.846v-330.831h-425.354v299.323zM63.015 103.713v291.446h425.354v-322.954h-393.846c-17.4 0-31.508 14.108-31.508 31.508zM960.985 103.713c0-17.4-14.108-31.508-31.508-31.508h-385.969v322.954h417.477v-291.446zM960.985 450.298h-417.477v330.831h385.969c17.4 0 31.508-14.108 31.508-31.508v-299.323z" />
<glyph unicode="&#xe94c;" glyph-name="two_split_mode" d="M968.862 836.267h-913.723c-26.104 0-47.262-21.157-47.262-47.262v-724.677c0-26.104 21.157-47.262 47.262-47.262h913.723c26.104 0 47.262 21.157 47.262 47.262v724.677c0 26.104-21.157 47.262-47.262 47.262zM960.985 103.713c0-17.4-14.108-31.508-31.508-31.508h-834.954c-17.4 0-31.508 14.108-31.508 31.508v291.446h897.969v-291.446zM63.015 450.298v299.323c0 17.4 14.108 31.508 31.508 31.508h834.954c17.4 0 31.508-14.108 31.508-31.508v-299.323h-897.969z" />
<glyph unicode="&#xe94d;" glyph-name="ordinary_mode" d="M968.862 836.267h-913.723c-26.104 0-47.262-21.157-47.262-47.262v-724.677c0-26.104 21.157-47.262 47.262-47.262h913.723c26.104 0 47.262 21.157 47.262 47.262v724.677c0 26.104-21.157 47.262-47.262 47.262zM960.985 103.713c0-17.4-14.108-31.508-31.508-31.508h-834.954c-17.4 0-31.508 14.108-31.508 31.508v645.908c0 17.4 14.108 31.508 31.508 31.508h834.954c17.4 0 31.508-14.108 31.508-31.508v-645.908z" />
<glyph unicode="&#xe94e;" glyph-name="expansion_mode" d="M1012.185 710.236c-127.212 76.784-304.254 126.031-500.185 126.031s-372.972-49.247-500.185-126.031h-3.938v-567.138h3.938c127.212-76.784 304.254-126.031 500.185-126.031s372.972 49.247 500.185 126.031h3.938v567.138h-3.938zM960.985 175.299c-116.224-62.881-274.4-103.093-448.985-103.093s-332.761 40.212-448.985 103.093v502.737c116.224 62.881 274.4 103.093 448.985 103.093s332.761-40.212 448.985-103.093v-502.737z" />
<glyph unicode="&#xe94f;" glyph-name="cylinder_mode" d="M936.881 725.99c-9.736 105.102-212.653 189.046-424.881 189.046s-415.145-83.944-424.881-189.046h-0.473v-598.646h0.473c9.736-105.102 212.653-189.046 424.881-189.046s415.145 83.944 424.881 189.046h0.473v598.646h-0.473zM512 859.898c187.061 0 370.215-63.48 370.215-141.785s-183.154-141.785-370.215-141.785c-187.061 0-370.215 63.48-370.215 141.785s183.154 141.785 370.215 141.785zM512-6.564c-187.061 0-370.215 63.48-370.215 141.785v488.802c76.075-61.259 220.861-102.833 370.215-102.833s294.14 41.574 370.215 102.833v-488.802c0-78.304-183.154-141.785-370.215-141.785z" />
<glyph unicode="&#xe950;" glyph-name="fisheye_mode" d="M512 930.79c-278.418 0-504.123-225.705-504.123-504.123s225.705-504.123 504.123-504.123 504.123 225.705 504.123 504.123-225.705 504.123-504.123 504.123zM512-22.318c-247.966 0-448.985 201.019-448.985 448.985s201.019 448.985 448.985 448.985 448.985-201.019 448.985-448.985c0-247.966-201.019-448.985-448.985-448.985zM374.154 741.744c-3.576 0-6.971-0.733-10.106-1.969l-0.126 0.291c-115.964-54.886-196.561-172.205-198.42-308.578-0.008-0.307-0.087-0.583-0.087-0.882 0-0.205 0.055-0.402 0.063-0.607-0.016-1.111-0.063-2.213-0.063-3.332h0.394c1.93-13.344 13.296-23.631 27.175-23.631s25.246 10.287 27.175 23.631h0.394c0 115.003 66.639 214.402 163.391 261.813 10.374 3.954 17.778 13.926 17.778 25.695 0 15.226-12.343 27.569-27.569 27.569z" />
<glyph unicode="&#xe951;" glyph-name="setting" d="M512 568.452c-78.304 0-141.785-63.48-141.785-141.785s63.48-141.785 141.785-141.785 141.785 63.48 141.785 141.785-63.48 141.785-141.785 141.785zM512 340.021c-47.852 0-86.646 38.794-86.646 86.646s38.794 86.646 86.646 86.646 86.646-38.794 86.646-86.646c0-47.852-38.794-86.646-86.646-86.646zM968.862 536.944h-119.981c-5.648 17.274-12.595 33.942-20.716 49.932l84.866 84.866c18.456 18.456 18.456 48.38 0 66.836l-89.12 89.12c-18.456 18.456-48.38 18.456-66.836 0l-84.866-84.866c-15.99 8.121-32.658 15.069-49.932 20.716v119.981c0 26.104-21.157 47.262-47.262 47.262h-126.031c-26.104 0-47.262-21.157-47.262-47.262v-119.981c-17.274-5.648-33.942-12.595-49.932-20.716l-84.866 84.866c-18.456 18.456-48.38 18.456-66.836 0l-89.12-89.12c-18.456-18.456-18.456-48.38 0-66.836l84.866-84.866c-8.121-15.99-15.069-32.658-20.716-49.932h-119.981c-26.104 0-47.262-21.157-47.262-47.262v-126.031c0-26.104 21.157-47.262 47.262-47.262h119.981c5.648-17.274 12.595-33.942 20.716-49.932l-84.866-84.866c-18.456-18.456-18.456-48.38 0-66.836l89.12-89.12c18.456-18.456 48.38-18.456 66.836 0l84.866 84.866c15.99-8.121 32.658-15.069 49.932-20.716v-119.981c0-26.104 21.157-47.262 47.262-47.262h126.031c26.104 0 47.262 21.157 47.262 47.262v119.981c17.274 5.648 33.942 12.595 49.932 20.716l84.866-84.866c18.456-18.456 48.38-18.456 66.836 0l89.12 89.12c18.456 18.456 18.456 48.38 0 66.836l-84.866 84.866c8.121 15.99 15.069 32.658 20.716 49.932h119.981c26.104 0 47.262 21.157 47.262 47.262v126.031c0 26.104-21.157 47.262-47.262 47.262zM960.985 371.529h-154.837c-7.775-41.582-24.135-80.156-47.222-113.806l109.552-109.552-77.974-77.974-109.56 109.552c-33.642-23.095-72.224-39.448-113.806-47.23v-154.837h-110.277v154.837c-41.582 7.782-80.163 24.135-113.806 47.23l-109.552-109.552-77.974 77.974 109.552 109.552c-23.095 33.642-39.448 72.224-47.23 113.806h-154.837v110.277h154.837c7.775 41.582 24.135 80.163 47.23 113.806l-109.552 109.552 77.974 77.974 109.552-109.552c33.642 23.095 72.224 39.448 113.806 47.23v154.837h110.277v-154.837c41.582-7.782 80.163-24.135 113.806-47.23l109.552 109.552 77.974-77.974-109.552-109.552c23.095-33.642 39.448-72.224 47.222-113.806h154.845v-110.277z" />
<glyph unicode="&#xe952;" glyph-name="fisheye" d="M512 686.605c-143.557 0-259.938-116.382-259.938-259.938s116.382-259.938 259.938-259.938 259.938 116.382 259.938 259.938-116.382 259.938-259.938 259.938zM512 221.867c-113.105 0-204.8 91.695-204.8 204.8s91.695 204.8 204.8 204.8 204.8-91.695 204.8-204.8c0-113.105-91.695-204.8-204.8-204.8zM512 930.79c-278.418 0-504.123-225.705-504.123-504.123s225.705-504.123 504.123-504.123 504.123 225.705 504.123 504.123-225.705 504.123-504.123 504.123zM512-22.318c-247.966 0-448.985 201.019-448.985 448.985s201.019 448.985 448.985 448.985 448.985-201.019 448.985-448.985c0-247.966-201.019-448.985-448.985-448.985zM508.062 560.575c-1.363 0-2.686-0.142-3.97-0.402-67.616-3.962-121.635-57.974-125.598-125.598-0.26-1.284-0.402-2.607-0.402-3.97 0-10.878 8.814-19.692 19.692-19.692s19.692 8.814 19.692 19.692c0 1.347-0.142 2.662-0.394 3.938h0.796c3.797 45.907 40.346 82.456 86.252 86.252v0.788c1.276-0.26 2.592-0.394 3.938-0.394 10.878 0 19.692 8.814 19.692 19.692-0.008 10.878-8.822 19.692-19.7 19.692z" />
<glyph unicode="&#xe953;" glyph-name="adapt" d="M779.815 206.113h189.054c26.096 0 47.254-21.157 47.254-47.262s-21.157-47.262-47.254-47.262v0h-141.785v-141.785c0-26.104-21.157-47.262-47.262-47.262s-47.262 21.157-47.262 47.262v0 189.046c0 26.104 21.157 47.262 47.254 47.262zM779.823 930.79c26.104 0 47.262-21.157 47.262-47.262v-141.785h141.785c26.096 0 47.254-21.165 47.254-47.262 0-26.104-21.157-47.262-47.254-47.262h-189.054c-26.096 0-47.254 21.157-47.254 47.262v189.046c0 26.104 21.157 47.262 47.262 47.262zM55.138 741.744v0h141.785v141.785c0 26.104 21.165 47.262 47.262 47.262 26.104 0 47.269-21.157 47.269-47.262 0 0-0.008 0-0.008-0.008v-189.038c0-26.104-21.157-47.262-47.262-47.262h-189.038c0 0 0 0-0.008 0-26.096 0-47.262 21.157-47.262 47.262 0 26.096 21.165 47.262 47.262 47.262zM322.962 615.713h378.092v-378.092h-378.092v378.092zM417.485 332.144h189.046v189.046h-189.046v-189.046zM244.185-77.456c-26.096 0-47.262 21.157-47.262 47.262v0 141.785h-141.785c-26.096 0-47.262 21.157-47.262 47.262s21.165 47.262 47.262 47.262v0h189.046c26.104 0 47.262-21.157 47.262-47.262v-189.046h0.008c0-26.104-21.165-47.262-47.269-47.262z" />
<glyph unicode="&#xe954;" glyph-name="covered" d="M968.869-77.456h-189.054c-26.096 0-47.254 21.157-47.254 47.262s21.157 47.262 47.254 47.262v0h141.792v141.785c0 0-0.008 0-0.008 0.008 0 26.104 21.165 47.254 47.269 47.254 26.096 0 47.254-21.157 47.254-47.262v0-189.046c0-26.104-21.157-47.262-47.254-47.262zM968.869 647.221c-26.104 0-47.269 21.157-47.269 47.262l0.008 0.008v141.777h-141.792c-26.096 0-47.254 21.157-47.254 47.262s21.157 47.262 47.254 47.262c0.008 0 0.008 0 0.008 0h189.046c26.096 0 47.254-21.157 47.254-47.262v-189.046c0-26.104-21.157-47.262-47.254-47.262zM244.185 836.267v0h-141.777v-141.785c0-26.104-21.165-47.269-47.262-47.269-26.104 0.008-47.269 21.165-47.269 47.269 0 0 0.008 0 0.008 0.008v189.038c0 26.096 21.157 47.254 47.262 47.254h189.038c26.104 0.008 47.269-21.15 47.269-47.254s-21.165-47.262-47.269-47.262zM149.669 789.005h724.669v-724.677h-724.669v724.677zM244.185 158.852h535.631v535.631h-535.631v-535.631zM55.146 206.113c26.096 0 47.262-21.15 47.262-47.254v0-141.785h141.777c26.104 0 47.269-21.157 47.269-47.262s-21.165-47.262-47.269-47.262v0h-189.038c-26.104 0-47.262 21.157-47.262 47.262v189.038h-0.008c0 26.104 21.165 47.262 47.269 47.262z" />
<glyph unicode="&#xe955;" glyph-name="confirm" d="M995.029 650.836v0l-552.141-549.762c-13.028-12.973-31.035-21-50.924-21s-37.888 8.019-50.924 21v0l-312.068 310.737c-13.044 12.981-21.094 30.909-21.094 50.704 0 39.613 32.24 71.712 72.011 71.712 19.889 0 37.888-8.027 50.932-21v0l261.152-260.025 501.209 499.042c13.028 12.981 31.035 21.008 50.924 21.008 39.778 0 72.019-32.106 72.019-71.712 0-19.795-8.058-37.73-21.094-50.704z" />
<glyph unicode="&#xe956;" glyph-name="enlarge" d="M1016.123 17.067c0-52.2-42.315-94.523-94.515-94.523-26.104 0-49.735 10.579-66.844 27.687l-277.024 277.024c-56.273-33.233-121.675-52.649-191.772-52.649-208.809 0-378.092 169.275-378.092 378.092s169.283 378.092 378.092 378.092c208.817 0 378.092-169.275 378.092-378.092 0-70.089-19.409-135.491-52.649-191.764l277.024-277.024c17.109-17.109 27.687-40.739 27.687-66.844zM385.969 836.275c-156.609 0-283.561-126.96-283.561-283.577 0-156.609 126.952-283.569 283.561-283.569 156.617 0 283.577 126.96 283.577 283.569 0 156.617-126.96 283.577-283.577 283.577zM543.516 505.436h-110.277v-110.269c0-26.104-21.157-47.269-47.269-47.269-26.096 0-47.254 21.165-47.254 47.269v110.269h-110.285c-26.096 0-47.254 21.165-47.254 47.262s21.157 47.269 47.254 47.269h110.285v110.269c0 26.104 21.157 47.262 47.254 47.262 26.112 0 47.269-21.157 47.269-47.262v-110.269h110.277c26.096 0 47.262-21.165 47.262-47.269 0-26.096-21.165-47.262-47.262-47.262z" />
<glyph unicode="&#xe957;" glyph-name="info" d="M512 930.79c-278.426 0-504.123-225.705-504.123-504.123s225.697-504.123 504.123-504.123c278.418 0 504.123 225.705 504.123 504.123s-225.705 504.123-504.123 504.123zM512 17.067c-226.217 0-409.608 183.383-409.608 409.6 0 226.225 183.391 409.6 409.608 409.6s409.6-183.375 409.6-409.6c0-226.217-183.383-409.6-409.6-409.6zM545.745 536.4c-8.995 9.46-20.425 14.194-34.265 14.194-13.848 0-25.096-4.734-33.753-14.194s-12.981-23.536-12.981-42.228v-270.344c0-18.464 4.324-32.658 12.981-42.575s19.905-14.88 33.753-14.88c13.84 0 25.269 4.844 34.265 14.541 9.003 9.689 13.501 23.993 13.501 42.921v273.101c0 16.849-4.49 29.995-13.501 39.463zM545.406 606.836c9.224 8.192 13.84 19.558 13.84 34.099 0 14.998-4.726 26.419-14.186 34.272-9.468 7.845-20.315 11.768-32.54 11.768-12.698 0-23.836-4.324-33.406-12.981-9.586-8.649-14.368-19.677-14.368-33.052 0-14.769 4.671-26.191 14.021-34.272s20.59-12.115 33.753-12.115c12.682 0 23.654 4.088 32.886 12.28z" />
<glyph unicode="&#xe958;" glyph-name="narrow" d="M1016.123 17.067c0-52.2-42.323-94.523-94.523-94.523-26.104 0-49.735 10.579-66.836 27.687l-277.024 277.024c-56.281-33.233-121.683-52.649-191.772-52.649-208.817 0-378.092 169.275-378.092 378.092s169.275 378.092 378.092 378.092c208.809 0 378.092-169.275 378.092-378.092 0-70.089-19.417-135.491-52.649-191.764l277.024-277.024c17.109-17.109 27.687-40.739 27.687-66.844zM385.969 836.275c-156.609 0-283.569-126.96-283.569-283.577 0-156.609 126.96-283.569 283.569-283.569s283.569 126.96 283.569 283.569c0 156.617-126.96 283.577-283.569 283.577zM543.508 505.436h-315.077c-26.096 0-47.262 21.165-47.262 47.262s21.165 47.269 47.262 47.269h315.077c26.104 0 47.262-21.173 47.262-47.269s-21.157-47.262-47.262-47.262z" />
<glyph unicode="&#xe959;" glyph-name="three_split_mode" d="M968.862 836.267h-913.723c-26.104 0-47.262-21.157-47.262-47.262v-724.677c0-26.104 21.157-47.262 47.262-47.262h913.723c26.104 0 47.262 21.157 47.262 47.262v724.677c0 26.104-21.157 47.262-47.262 47.262zM960.985 103.713c0-17.4-14.108-31.508-31.508-31.508h-834.954c-17.4 0-31.508 14.108-31.508 31.508v645.908c0 17.4 14.108 31.508 31.508 31.508h834.954c17.4 0 31.508-14.108 31.508-31.508v-645.908zM7.877 450.298h1008.246v-55.138h-1008.246v55.138zM484.431 820.513h55.138v-393.846h-55.138v393.846z" />
<glyph unicode="&#xe95a;" glyph-name="stop" d="M673.477 718.113h-7.877c-10.878 0-19.692-8.814-19.692-19.692v-543.508c0-10.878 8.814-19.692 19.692-19.692h7.877c10.878 0 19.692 8.814 19.692 19.692v543.508c0 10.878-8.814 19.692-19.692 19.692zM358.4 718.113h-7.877c-10.878 0-19.692-8.814-19.692-19.692v-543.508c0-10.878 8.814-19.692 19.692-19.692h7.877c10.878 0 19.692 8.814 19.692 19.692v543.508c0 10.878-8.814 19.692-19.692 19.692z" />
<glyph unicode="&#xe95b;" glyph-name="model" d="M308.122 278.526l-52.334-52.334 55.698-55.698 52.334 52.326c-21.354 15.557-40.157 34.359-55.698 55.706zM217.049 777.308l-33.69 33.69-55.674-55.674 33.69-33.69c16.935 20.118 35.564 38.739 55.674 55.674zM660.133 630.538c21.354-15.541 40.157-34.336 55.706-55.682l52.366 52.366-55.698 55.698-52.374-52.382zM832.803 426.667c0 57.116-14.998 110.694-41.165 157.152l-51.019-51.019c15.013-32.264 23.442-68.206 23.442-106.134 0-139.201-112.853-252.038-252.062-252.038-37.92 0-73.862 8.428-106.118 23.426l-51.027-51.019c46.45-26.159 100.029-41.149 157.145-41.149 177.176 0 320.803 143.62 320.803 320.78zM806.991 76.065l33.65-33.65 55.674 55.674-33.65 33.65c-16.935-20.11-35.564-38.739-55.674-55.674zM512 930.751c-107.906 0-207.817-34.013-289.816-91.743l32.855-32.855c73.295 49.711 161.729 78.769 256.961 78.769 253.109 0 458.295-205.17 458.295-458.256 0-95.224-29.066-183.65-78.785-256.937l32.855-32.855c57.746 81.999 91.758 181.894 91.758 289.792 0 278.394-225.705 504.084-504.123 504.084zM191.197 426.667c0-57.092 14.982-110.655 41.133-157.097l51.027 51.027c-14.998 32.248-23.418 68.167-23.418 106.071 0 139.201 112.853 252.038 252.062 252.038 37.904 0 73.815-8.42 106.063-23.402l51.027 51.027c-46.442 26.136-99.998 41.118-157.089 41.118-177.176 0-320.803-143.62-320.803-320.78zM512-31.589c-253.109 0-458.295 205.17-458.295 458.256 0 95.248 29.082 183.69 78.816 256.985l-32.855 32.855c-57.761-81.999-91.79-181.918-91.79-289.839 0-278.394 225.705-504.084 504.123-504.084 107.93 0 207.856 34.028 289.863 91.782l-32.855 32.855c-73.303-49.735-161.753-78.809-257.008-78.809z" />
<glyph unicode="&#xe95c;" glyph-name="max_window" d="M785.833 612.98c-0.095 0.339-0.158 0.701-0.268 1.032-2.253 7.255-6.223 13.737-11.414 19.031-0.102 0.11-0.197 0.228-0.307 0.339-1.835 1.835-3.844 3.482-5.963 5.002-1.583 1.134-3.206 2.206-4.931 3.143-0.047 0.024-0.102 0.047-0.15 0.071-2.276 1.229-4.679 2.237-7.16 3.080-1.103 0.378-2.229 0.701-3.363 0.992-3.789 0.977-7.743 1.552-11.847 1.552h-456.862c-26.104 0-47.262-21.157-47.262-47.262v-346.585c0-13.052 5.293-24.867 13.84-33.422 0.197-0.197 0.417-0.362 0.614-0.559 1.426-1.378 2.954-2.655 4.545-3.844 7.893-5.9 17.652-9.437 28.262-9.437h456.862c26.104 0 47.262 21.157 47.262 47.262v0 0 346.585c0 4.521-0.67 8.877-1.859 13.021zM330.831 552.698h362.338v-252.062h-362.338v252.062z" />
<glyph unicode="&#xe95d;" glyph-name="minimize" d="M787.692 379.405h-551.385c-26.104 0-47.262 21.157-47.262 47.262s21.157 47.262 47.262 47.262h551.385c26.104 0 47.262-21.157 47.262-47.262s-21.157-47.262-47.262-47.262z" />
</font>
</defs>
</svg>
